<?xml version="1.0" standalone="no"?>
<!DOCTYPE svg PUBLIC "-//W3C//DTD SVG 20010904//EN"
 "http://www.w3.org/TR/2001/REC-SVG-20010904/DTD/svg10.dtd">
<svg version="1.0" xmlns="http://www.w3.org/2000/svg"
 width="700.000000pt" height="700.000000pt" viewBox="0 0 700.000000 700.000000"
 preserveAspectRatio="xMidYMid meet">
<metadata>
Created by potrace 1.11, written by Peter Selinger 2001-2013
</metadata>
<g transform="translate(0.000000,700.000000) scale(0.100000,-0.100000)"
fill="#000000" stroke="none">
<path d="M2424 6990 c-38 -15 -37 -14 -60 -180 -15 -113 -18 -136 -29 -255 -3
-33 -8 -80 -11 -105 -6 -57 -10 -97 -24 -245 -11 -122 -14 -153 -25 -285 -3
-41 -8 -95 -10 -120 -2 -25 -7 -76 -10 -115 -4 -38 -8 -86 -10 -105 -2 -19 -7
-75 -10 -125 l-6 -90 -72 -65 c-81 -73 -391 -381 -452 -450 -33 -37 -151 -177
-223 -265 -49 -59 -198 -265 -268 -370 -240 -357 -462 -783 -636 -1215 -37
-93 -139 -370 -143 -390 -2 -8 -10 -33 -18 -55 -44 -116 -203 -690 -212 -765
-1 -8 -5 -28 -8 -45 -4 -16 -9 -39 -11 -50 -3 -11 -9 -40 -15 -65 -5 -25 -13
-61 -16 -80 -3 -19 -10 -60 -15 -90 -5 -30 -12 -71 -15 -90 -3 -19 -8 -42 -10
-50 -2 -8 -6 -37 -10 -64 -3 -27 -8 -52 -9 -55 -2 -3 -7 -28 -10 -56 -22 -175
-35 -278 -41 -330 -2 -27 -7 -68 -9 -90 -3 -22 -8 -78 -11 -125 -4 -47 -8
-105 -11 -130 -2 -25 -6 -141 -10 -258 l-6 -212 2186 2 c1202 1 2186 3 2186 5
0 4 -52 97 -60 108 -20 26 -174 344 -223 461 -50 118 -123 328 -130 372 -1 9
-6 23 -10 30 -5 6 -6 12 -4 12 3 0 1 17 -4 38 -23 97 -27 211 -15 377 9 137
14 174 32 285 17 102 57 204 98 248 57 64 123 70 294 31 363 -84 691 -147 852
-165 36 -3 79 -8 95 -10 50 -5 308 -4 345 2 71 11 166 37 210 57 61 29 156
125 169 173 12 43 5 62 -46 115 l-35 36 25 7 c62 15 191 -35 424 -166 51 -28
52 -28 63 -9 8 15 7 38 -5 88 -44 188 -145 305 -335 386 -38 17 -214 63 -276
73 -71 11 -152 41 -201 74 -309 210 -380 251 -483 276 -41 10 -77 19 -80 19
-59 10 -232 90 -304 142 -113 81 -251 111 -415 90 l-54 -7 18 27 c47 75 67 93
113 106 99 30 257 2 427 -75 233 -105 870 -309 1043 -334 20 -3 43 -7 50 -9
14 -5 153 -18 192 -18 142 -1 312 44 431 114 77 44 199 160 247 232 36 54 75
127 68 127 -3 0 -20 -9 -39 -20 -53 -31 -116 -36 -163 -12 -73 38 -138 129
-148 205 -3 25 2 42 19 63 31 38 52 26 82 -47 34 -84 66 -119 112 -119 29 0
44 7 65 29 16 16 41 43 58 60 16 17 34 32 39 32 5 1 15 2 22 3 6 1 19 -1 28
-6 19 -8 26 11 36 89 11 88 -41 137 -242 225 -60 27 -119 53 -130 58 -46 21
-230 96 -560 230 -192 77 -386 156 -430 175 -44 18 -100 41 -125 51 -25 9 -49
20 -55 24 -5 4 -28 13 -50 20 -151 48 -200 107 -264 320 -104 343 -169 475
-286 578 -26 23 -99 71 -162 107 -135 78 -387 205 -406 205 -7 0 -17 4 -23 9
-22 21 -261 101 -379 127 -16 3 -113 8 -215 9 -138 2 -193 -1 -218 -11 l-33
-13 -46 72 c-469 732 -735 1100 -856 1188 -42 30 -58 34 -93 19z m2441 -2462
c-11 -49 -8 -106 8 -137 18 -37 11 -35 -91 27 l-74 45 51 27 c28 16 63 37 78
49 36 26 36 26 28 -11z m149 -20 c7 -29 6 -42 -8 -62 -20 -31 -32 -33 -46 -5
-25 47 -7 114 29 107 9 -2 20 -19 25 -40z m-559 -1668 c4 -16 11 -32 16 -35 4
-3 32 10 61 29 31 21 55 31 58 25 5 -6 15 -6 33 0 27 10 27 10 27 -34 0 -48 4
-51 44 -35 14 5 26 6 27 2 3 -29 11 -74 19 -112 5 -25 12 -65 16 -90 3 -24 8
-49 11 -53 20 -32 -227 93 -395 200 l-52 34 32 27 c18 15 44 37 58 49 32 30
37 29 45 -7z m540 -232 l15 -23 41 23 c44 25 48 25 53 -4 8 -40 18 -224 12
-224 -3 0 -20 6 -38 14 -18 8 -49 21 -68 29 -19 8 -65 27 -102 42 l-67 28 61
68 c33 38 65 69 69 69 4 0 15 -10 24 -22z m900 -202 c-3 -11 -7 -34 -10 -50
-8 -50 -27 -141 -31 -147 -2 -4 -30 -1 -61 7 -32 7 -74 15 -93 17 -19 3 -36 6
-38 6 -2 1 41 46 95 101 81 82 102 98 120 94 17 -5 22 -12 18 -28z m-592 -48
c9 -27 14 -48 13 -48 -3 0 -76 25 -106 36 -11 4 -5 14 25 39 22 19 43 31 46
27 4 -4 13 -28 22 -54z m287 -77 l21 -33 -48 6 c-26 4 -63 10 -81 13 l-34 6
43 43 44 44 17 -22 c10 -13 27 -38 38 -57z"/>
</g>
</svg>
