<?xml version="1.0" encoding="UTF-8" standalone="no"?>
<svg id="svg2" xmlns:rdf="http://www.w3.org/1999/02/22-rdf-syntax-ns#" xmlns="http://www.w3.org/2000/svg" version="1.1" xml:space="preserve" height="10" viewBox="0 0 7.9999995 10" width="8" enable-background="new 0 0 100 100" y="0px" x="0px" xmlns:cc="http://creativecommons.org/ns#" xmlns:dc="http://purl.org/dc/elements/1.1/"><g id="g4" style="display:none" display="none" transform="translate(-14.019,-75.98)"><path id="path6" d="m79.762 50.001c0-3.41 2.764-6.172 6.174-6.172v-14.111h-71.872v14.111c3.414 0 6.175 2.762 6.175 6.172 0 3.414-2.761 6.178-6.175 6.178v14.104h71.872v-14.104c-3.411 0-6.174-2.764-6.174-6.178z" style="display:inline" display="inline"/></g><g id="g8" style="display:none" display="none" transform="translate(-14.019,-75.98)"><path id="path10" d="m84.649 28.072-15.563 15.563-12.722-12.719 15.562-15.565c-7.393-2.627-15.958-1.005-21.872 4.914-5.917 5.914-7.541 14.48-4.916 21.873l-31.003 31.004 12.722 12.725 31.006-31.007c7.392 2.626 15.957 1.004 21.872-4.913 5.917-5.917 7.539-14.48 4.914-21.875z" style="display:inline" display="inline"/></g><g id="g12" style="display:none" display="none" transform="translate(-14.019,-75.98)"><path id="path14" d="m71.885 38.652v-24.586h-43.778v24.586h.016l-2.274 16.811h.012v22.156h1.979v8.314h7.386v-8.314h29.551v8.314h7.387v-8.314h1.982v-22.156h.008l-2.269-16.811zm-36.802 32.502c-2.547 0-4.612-2.059-4.612-4.615 0-2.549 2.065-4.615 4.612-4.615 2.549 0 4.62 2.066 4.62 4.615 0 2.557-2.072 4.615-4.62 4.615zm29.839 0c-2.553 0-4.613-2.059-4.613-4.615 0-2.549 2.061-4.615 4.613-4.615 2.547 0 4.617 2.066 4.617 4.615 0 2.557-2.07 4.615-4.617 4.615zm-34.452-16.693l3.009-15.809h33.047l3.014 15.809h-39.07z" style="display:inline" display="inline"/></g><g id="g16" style="display:none" display="none" transform="translate(-14.019,-75.98)"><path id="path18" d="m86 18.67-7.942 8.311.177.014c-6.624-7.923-16.512-12.975-27.674-12.975-19.973 0-36.109 16.107-36.109 35.984 0 19.871 16.215 35.977 36.184 35.977 15.459 0 28.668-9.658 33.825-23.25l-13.269-5.516c-2.992 8.42-11.073 14.465-20.538 14.465-12.02 0-21.779-9.725-21.779-21.676 0-11.961 9.767-21.691 21.785-21.691 7.195 0 13.566 3.5 17.541 8.867l-8.686 8.088 26.485-.012v-26.586z" style="display:inline" display="inline"/></g><g id="g20" style="fill:#000000" transform="matrix(.11117 0 0 .13897 -1.5585 -1.9483)"><polygon id="polygon22" style="fill:#000000" points="14.019 85.98 14.019 14.02 85.981 50.004"/></g></svg>
