<?xml version="1.0" encoding="UTF-8" standalone="no"?>
<svg id="Capa_1" xmlns:rdf="http://www.w3.org/1999/02/22-rdf-syntax-ns#" xmlns="http://www.w3.org/2000/svg" xml:space="preserve" height="16" viewBox="0 0 9.9999997 16" width="10" version="1.1" y="0px" x="0px" xmlns:cc="http://creativecommons.org/ns#" xmlns:dc="http://purl.org/dc/elements/1.1/"><g id="g3" style="fill:#000000" transform="matrix(.15616 0 0 .16302 -2.6632 0)"><path id="path5" style="fill:#000000" d="m33.458 97.562 47.073-47.072c.75-.75.75-2.078 0-2.828l-47.075-47.076c-.375-.375-.884-.586-1.414-.586s-1.039.211-1.414.586l-12.987 12.987c-.391.391-.586.902-.586 1.414s.195 1.023.586 1.414l32.674 32.674-32.673 32.675c-.751.75-.75 2.078 0 2.828l12.987 12.984c.782.782 2.048.782 2.829 0z"/></g></svg>
