<?xml version="1.0" encoding="UTF-8" standalone="no"?>
<svg
   xmlns:dc="http://purl.org/dc/elements/1.1/"
   xmlns:cc="http://creativecommons.org/ns#"
   xmlns:rdf="http://www.w3.org/1999/02/22-rdf-syntax-ns#"
   xmlns:svg="http://www.w3.org/2000/svg"
   xmlns="http://www.w3.org/2000/svg"
   xmlns:xlink="http://www.w3.org/1999/xlink"
   height="353"
   width="359.99423"
   xml:space="preserve"
   viewBox="0 0 359.99424 352.99999"
   y="0px"
   x="0px"
   id="Слой_1"
   version="1.1"><metadata
     id="metadata27"><rdf:RDF><cc:Work
         rdf:about=""><dc:format>image/svg+xml</dc:format><dc:type
           rdf:resource="http://purl.org/dc/dcmitype/StillImage" /><dc:title></dc:title></cc:Work></rdf:RDF></metadata><defs
     id="defs25" /><style
     id="style3"
     type="text/css">
	.st0{clip-path:url(#SVGID_2_);}
</style><g
     transform="translate(-117,-244.89999)"
     id="g5"><defs
       id="defs7"><rect
         height="354"
         width="360"
         y="244.89999"
         x="117"
         id="SVGID_1_" /></defs><clipPath
       id="SVGID_2_"><use
         height="100%"
         width="100%"
         y="0"
         x="0"
         id="use11"
         style="overflow:visible"
         xlink:href="#SVGID_1_" /></clipPath><path
       clip-path="url(#SVGID_2_)"
       id="path13"
       d="m 251.1,412.5 -2.8,-2.2 c -14.3,-11.3 -35.1,-9.5 -47.2,4.1 -3.6,4 -7,7.6 -10.1,10.9 l 0,0 c -6.3,6.5 -11.6,11.3 -15.7,14.4 -3.2,2.4 -3.9,6.9 -1.5,10.1 2.4,3.2 6.9,3.9 10.1,1.5 1.9,-1.4 3.9,-3.1 6.2,-5 1.1,8.7 5.2,16.5 11.9,22.3 6.4,5.5 14.4,8.5 22.8,8.5 1.1,0 2.2,0 3.3,-0.1 l 32.9,-3 c 3.7,-0.3 6.5,-3.4 6.5,-7.2 l 0,-21 c -0.2,-13 -6.1,-25.2 -16.4,-33.3 l 0,0 z m 1.8,47.7 -26.3,2.4 c -5.6,0.5 -11.1,-1.2 -15.4,-4.9 -4.3,-3.7 -6.8,-8.8 -7.1,-14.5 l -0.6,-10.1 c 2.7,-2.8 5.4,-5.8 8.3,-9 7.1,-8 19.2,-9 27.6,-2.4 l 2.8,2.2 c 6.8,5.4 10.7,13.4 10.7,22 l 0,14.3 z m 0,0"
       class="st0" /><path
       clip-path="url(#SVGID_2_)"
       id="path15"
       d="m 473.4,267.6 c -3.5,-13.4 -15.7,-22.8 -29.6,-22.8 -0.7,0 -1.5,0 -2.3,0.1 -4.5,0.3 -8.8,1.6 -12.7,3.8 -3.9,2.2 -7.3,5.2 -9.9,8.8 l -26.6,37 c -4.5,6.3 -9.6,12.2 -15.1,17.6 -0.1,0.1 -0.1,0.1 -0.2,0.2 -20.4,20 -46,33.2 -74.1,38.1 -4,0.7 -8,0.7 -12,0 -28.2,-4.9 -53.8,-18.1 -74.1,-38.1 -0.1,-0.1 -0.2,-0.2 -0.3,-0.3 -5.5,-5.4 -10.5,-11.3 -15,-17.5 l -26.7,-37 c -5.3,-7.3 -13.5,-11.9 -22.6,-12.6 -0.8,-0.1 -1.5,-0.1 -2.2,-0.1 -13.8,0 -26,9.4 -29.5,22.8 -2.3,8.9 -3.5,18 -3.5,27.2 0,4.9 0.3,9.9 1,14.7 l 19.6,139.8 c 3.1,21.9 11,43.3 23,61.9 9.2,14.3 20.9,26.7 34.6,36.8 10.6,7.8 22.2,14.1 34.4,18.7 3.6,2 7.7,3.3 12,3.8 2.3,0.3 4.5,0.4 6.7,0.4 0.9,0 1.7,0 2.6,-0.1 l 13.9,13.9 c 8.8,8.8 20.4,13.2 32,13.2 11.6,0 23.2,-4.4 32,-13.2 l 13.9,-13.9 c 0.9,0 1.7,0.1 2.6,0.1 2.2,0 4.5,-0.1 6.8,-0.4 4.3,-0.5 8.4,-1.8 12,-3.8 28.2,-10.5 52.7,-30.2 69,-55.5 6,-9.3 11,-19.3 14.9,-29.7 3.9,-10.4 6.6,-21.2 8.1,-32.2 L 476,309.6 c 1.9,-14.1 1.1,-28.2 -2.6,-42 l 0,0 z m -138.5,88.9 c 6.8,-2.6 13.4,-5.7 19.7,-9.3 -2,4.9 -3.3,9.6 -3.8,13.9 -5.3,-1.7 -10.6,-3.3 -15.9,-4.6 l 0,0 z m -91.7,4.7 c -0.6,-4.4 -1.8,-9 -3.8,-13.9 6.3,3.6 12.9,6.7 19.7,9.3 -5.4,1.2 -10.7,2.8 -15.9,4.6 l 0,0 z m 0.2,195 c -9.1,-1.1 -16,-8.4 -16.5,-17.6 -0.4,-8.3 4.8,-16 12.7,-18.7 L 270,509.6 c 2.5,2.9 6.1,4.7 10.2,4.7 1,0 2,0.6 2.5,1.5 1.5,3.2 4.1,5.7 7.2,7.2 l 0,9.3 -8.4,9.4 c -9.7,10.8 -23.9,16.2 -38.1,14.5 l 0,0 z m 55,-46.6 c -0.3,0.5 -0.8,0.9 -1.4,0.9 l -0.1,0 c -0.6,0 -1.1,-0.3 -1.4,-0.9 -1.7,-3.5 -4.6,-6.3 -8,-7.9 l 18.9,0 c -3.4,1.6 -6.3,4.3 -8,7.9 l 0,0 z m 20.4,65 c -12,12 -31.7,12 -43.7,0 l -7.1,-7.1 c 9.1,-3.2 17.4,-8.7 24,-16.1 l 4.9,-5.5 4.9,5.5 c 6.6,7.4 14.9,12.9 24,16.1 l -7,7.1 z m 31.8,-18.4 c -14.2,1.7 -28.4,-3.7 -38,-14.4 l -8.4,-9.4 0,-9.3 c 3.1,-1.5 5.6,-4 7.2,-7.2 0.5,-0.9 1.4,-1.5 2.5,-1.5 4.1,0 7.7,-1.8 10.2,-4.7 l 30.4,10.3 c 7.9,2.7 13.1,10.4 12.7,18.7 -0.6,9.1 -7.5,16.5 -16.6,17.5 l 0,0 z M 461.7,307.6 447.2,410.7 c -2.5,-4.1 -5.6,-7.9 -9.6,-11.2 -3.1,-2.5 -7.6,-2.1 -10.1,1 -2.5,3.1 -2.1,7.6 1,10.1 13.5,11 13.7,34.8 13.7,35.1 0,0.1 -0.2,1.6 -0.2,1.6 -1.4,9.9 -3.9,19.8 -7.4,29.2 -3.5,9.4 -8,18.5 -13.5,26.9 -10.2,15.8 -24,29.2 -40,39.1 0.1,-1 0.3,-2 0.3,-3 0.8,-14.8 -8.4,-28.4 -22.4,-33.1 l -32.9,-11.1 c -2.1,-4.7 -6.9,-8 -12.3,-8 l -33.6,0 c -5.5,0 -10.2,3.3 -12.3,8 L 235,506.4 c -14,4.7 -23.2,18.4 -22.4,33.1 0.1,1 0.2,2.1 0.3,3.1 -3.1,-1.9 -6.1,-3.9 -9,-6.1 -12.3,-9.1 -22.7,-20.2 -31,-33.1 -10.9,-16.8 -18.1,-36.2 -20.9,-56.1 0,0 -0.2,-1.5 -0.2,-1.6 0,-0.2 0.2,-24.1 13.7,-35.1 3.1,-2.5 3.5,-7.1 1,-10.1 -2.5,-3.1 -7.1,-3.5 -10.1,-1 -4,3.2 -7.1,7.1 -9.6,11.2 L 132.3,307.6 c -0.6,-4.2 -0.9,-8.5 -0.9,-12.8 0,-7.9 1,-15.8 3.1,-23.5 1.9,-7.1 8.3,-12 15.6,-12 0.4,0 0.8,0 1.2,0 4.8,0.4 9.1,2.8 11.9,6.7 l 26.7,37 c 4.9,6.8 10.4,13.3 16.4,19.2 0,0 0,0 0.1,0.1 0.9,1 6.6,7.5 12.2,16.2 7.2,11.2 10.8,21 10.6,28.4 -7.6,3.5 -15.1,7.6 -22.2,12.3 -3.3,2.2 -4.2,6.6 -2.1,10 2.2,3.3 6.6,4.3 10,2.1 49.9,-32.8 114.5,-32.8 164.4,0 1.2,0.8 2.6,1.2 3.9,1.2 2.3,0 4.6,-1.1 6,-3.3 2.2,-3.3 1.3,-7.8 -2.1,-10 -7.2,-4.7 -14.6,-8.8 -22.2,-12.3 -0.5,-15.4 16,-37.1 22.8,-44.6 6,-5.9 11.5,-12.4 16.5,-19.3 l 26.7,-37 c 1.4,-1.9 3.2,-3.5 5.2,-4.7 2.1,-1.2 4.3,-1.8 6.7,-2 0.5,0 0.9,0 1.2,0 7.3,0 13.8,4.9 15.6,12 3.1,11.9 3.8,24.1 2.1,36.3 l 0,0 z m 0,0"
       class="st0" /></g><path
     id="path17"
     d="m 301.8,194.80001 c -4.2,-3 -9.4,-7.9 -15.7,-14.4 0,0 0,0 0,0 -3.2,-3.3 -6.6,-6.9 -10.1,-10.9 -12.2,-13.6 -32.9,-15.4 -47.2,-4.2 l -2.8,2.2 c -10.3,8.1 -16.2,20.3 -16.2,33.3 l 0,21 c 0,3.7 2.8,6.8 6.5,7.2 l 32.9,3 c 1.1,0.1 2.2,0.1 3.3,0.1 8.4,0 16.4,-3 22.8,-8.5 6.7,-5.8 10.9,-13.6 11.9,-22.3 2.2,1.9 4.3,3.6 6.2,5 3.2,2.4 7.7,1.7 10.1,-1.5 2.2,-3.1 1.5,-7.6 -1.7,-10 l 0,0 z m -28.9,3.5 c -0.3,5.6 -2.9,10.8 -7.1,14.5 -4.3,3.7 -9.7,5.4 -15.4,4.9 l -26.3,-2.4 0,-14.4 c 0,-8.7 3.9,-16.7 10.7,-22 l 2.8,-2.2 c 8.4,-6.6 20.5,-5.5 27.6,2.4 2.9,3.2 5.7,6.2 8.3,9 l -0.6,10.2 z m 0,0" /><ellipse
     id="ellipse19"
     ry="19.5"
     rx="9"
     cy="195.10001"
     cx="111" /><ellipse
     id="ellipse21"
     ry="19.5"
     rx="9"
     cy="196.30002"
     cx="248.79999" /></svg>