<?xml version="1.0" encoding="UTF-8" standalone="no"?>
<!-- Generator: Adobe Illustrator 18.1.1, SVG Export Plug-In . SVG Version: 6.00 Build 0)  -->

<svg
   xmlns:dc="http://purl.org/dc/elements/1.1/"
   xmlns:cc="http://creativecommons.org/ns#"
   xmlns:rdf="http://www.w3.org/1999/02/22-rdf-syntax-ns#"
   xmlns:svg="http://www.w3.org/2000/svg"
   xmlns="http://www.w3.org/2000/svg"
   xmlns:sodipodi="http://sodipodi.sourceforge.net/DTD/sodipodi-0.dtd"
   xmlns:inkscape="http://www.inkscape.org/namespaces/inkscape"
   version="1.1"
   id="Capa_1"
   x="0px"
   y="0px"
   viewBox="0 0 244.555 244.555"
   style="enable-background:new 0 0 244.555 244.555;"
   xml:space="preserve"
   inkscape:version="0.91 r"
   sodipodi:docname="cat.svg"><metadata
     id="metadata43"><rdf:RDF><cc:Work
         rdf:about=""><dc:format>image/svg+xml</dc:format><dc:type
           rdf:resource="http://purl.org/dc/dcmitype/StillImage" /><dc:title></dc:title></cc:Work></rdf:RDF></metadata><defs
     id="defs41" /><sodipodi:namedview
     pagecolor="#ffffff"
     bordercolor="#666666"
     borderopacity="1"
     objecttolerance="10"
     gridtolerance="10"
     guidetolerance="10"
     inkscape:pageopacity="0"
     inkscape:pageshadow="2"
     inkscape:window-width="640"
     inkscape:window-height="480"
     id="namedview39"
     showgrid="false"
     inkscape:zoom="0.96501812"
     inkscape:cx="122.2775"
     inkscape:cy="118.1325"
     inkscape:current-layer="Capa_1" /><g
     id="g3"
     style="fill:#000000;fill-opacity:1"
     transform="matrix(-1,0,0,1,244.55502,0)"><g
       id="g5"
       style="fill:#000000;fill-opacity:1"><path
         style="fill:#000000;fill-opacity:1"
         d="m 207.187,2.821 c -2.4,-2 -6.6,-3.9 -10.7,-2.1 -7.8,5.3 27.4,27 9.6,99.6 -3.7,15 -12.8,7.2 -23.6,3.9 -24.6,-7.7 -50.9,-9.4 -76.4,-12.1 -9,-1 -18.2,-1.7 -26.9,-4.1 -9.2,-2.5 -9.6,-3 -7.3,-11.4 6.4,-8.1 3.8,-19.2 3.5,-23.8 4.8,-10.6 6.6,-19.8 2.8,-24.5 -10.3,-12.2 -12,19.4 -25.4,19.5 -6.1,-0.6 -10.1,-0.1 -11.6,-3.4 -2.7,-5.7 -6.9,-13.1 -12.3,-16.6 -8.3,-5.5 -10,9.7 -6.5,24.1 -1.1,8.8 -0.3,14.8 4.2,21.2 2.3,3.2 2.8,7.2 3.5,11 1.3,6.6 2.1,14.8 2.1,21.5 0,3.8 0.7,15.6 1.3,19.4 2.8,17.2 3.7,20.6 16.6,33.2 5.4,5.3 13.6,9.9 17,17 2.5,5.4 4.7,11.3 7,16.7 4.5,10.4 7.3,21 9.2,32.1 1.1,6 -13.2,7.3 -10.8,15.6 1.9,6.8 20.1,6.7 21.2,-1.1 0.7,-4.4 2.8,-12.4 3.8,-18.5 5.3,-22.9 -2.5,-31.8 3.6,-52.6 1.6,-7.5 30.9,7 34.9,9.7 8.1,5.5 16.8,9.9 25,15.2 12.7,8.2 3.9,15.4 -4.3,22.1 -4.4,3.6 -4.4,3.8 -10,2.5 -4.6,-0.9 -8.2,1.9 -9.2,5.2 -1.5,4.7 5.3,7.9 10,7.3 14.1,-1.5 33.6,-16.2 39.7,-28.9 4.1,4.8 2.4,9.3 0.1,15.4 -1,2.6 -2.1,5.1 -3,7.7 -2,5.9 -3.9,4.3 -8.7,5.4 -7.1,2.3 -3.9,12.7 3.9,11.5 2.7,-0.4 12.9,-1.6 14,-6.3 0.5,-2.1 2.6,-6.4 3.6,-8.5 2.2,-5.2 14.4,-32.4 9,-37.6 -2.8,-2.6 -5,-5.3 -7.1,-8.5 -3.3,-5.2 -1.8,-5.8 1.1,-10.2 3,-4.6 5.7,-10 8.3,-14.8 5.9,-11.4 1.5,-21.2 6.7,-36.4 16.1,-48.7 8.1,-102 -7.9,-115.4 z"
         id="path7"
         inkscape:connector-curvature="0" /></g></g><g
     id="g9" /><g
     id="g11" /><g
     id="g13" /><g
     id="g15" /><g
     id="g17" /><g
     id="g19" /><g
     id="g21" /><g
     id="g23" /><g
     id="g25" /><g
     id="g27" /><g
     id="g29" /><g
     id="g31" /><g
     id="g33" /><g
     id="g35" /><g
     id="g37" /></svg>