<?xml version="1.0" encoding="UTF-8" standalone="no"?>
<svg id="Слой_1" xmlns:rdf="http://www.w3.org/1999/02/22-rdf-syntax-ns#" xmlns="http://www.w3.org/2000/svg" xml:space="preserve" viewBox="0 0 279.60001 118.8" height="118.8" width="279.6" version="1.1" y="0px" x="0px" xmlns:cc="http://creativecommons.org/ns#" xmlns:dc="http://purl.org/dc/elements/1.1/"><style id="style3" type="text/css">
	.st0{fill:#222221;}
</style><path id="path5" style="fill:#222221" class="st0" d="m131.8 4-22.8 22.8c-10.6-16.1-28.9-26.8-49.6-26.8-32.8 0-59.4 26.6-59.4 59.4s26.6 59.4 59.4 59.4 59.4-26.6 59.4-59.4c0-3.7-0.4-7.3-1-10.8l29.3-29.3c4.2-4.2 4.2-11 0-15.3-4.3-4.2-11.1-4.2-15.3 0zm-72.4 93.2c-20.9 0-37.8-17-37.8-37.8s17-37.8 37.8-37.8c14.8 0 27.6 8.6 33.8 21l-21.6 21.6-23.1-23.1c-4.2-4.2-11.1-4.2-15.3 0s-4.2 11 0 15.3l30.7 30.7c2.1 2.1 4.9 3.2 7.6 3.2 2.8 0 5.5-1.1 7.6-3.2l16.2-16.2c-4.7 15.2-19 26.3-35.9 26.3z"/><path id="path7" style="fill:#222221" class="st0" d="m220.2 118.8c32.8 0 59.4-26.6 59.4-59.4s-26.6-59.4-59.4-59.4-59.4 26.6-59.4 59.4 26.7 59.4 59.4 59.4zm0-97.2c20.9 0 37.8 17 37.8 37.8s-17 37.8-37.8 37.8c-20.9 0-37.8-17-37.8-37.8s17-37.8 37.8-37.8z"/></svg>
