<?xml version="1.0" encoding="UTF-8" standalone="no"?>
<svg id="Capa_1" xmlns:rdf="http://www.w3.org/1999/02/22-rdf-syntax-ns#" style="enable-background:new 0 0 487.811 487.81" xmlns="http://www.w3.org/2000/svg" xml:space="preserve" height="487.81px" viewBox="0 0 487.811 487.81" width="487.81px" version="1.1" y="0px" x="0px" xmlns:cc="http://creativecommons.org/ns#" xmlns:dc="http://purl.org/dc/elements/1.1/"><g id="g3"><g id="_x33_6_24_"><g id="g6"><path id="path8" d="m150.46 109.52h150.51c3.955 0 7.16-3.206 7.16-7.161s-3.205-7.161-7.16-7.161h-150.51c-3.955 0-7.161 3.206-7.161 7.161 0 3.96 3.21 7.16 7.16 7.16z"/><path id="path10" d="m15.853 179.54h150.51c3.955 0 7.161-3.206 7.161-7.161s-3.206-7.16-7.161-7.16h-150.51c-3.955 0-7.161 3.205-7.161 7.16s3.209 7.16 7.164 7.16z"/><path id="path12" d="m56.258 253.21c0 3.955 3.206 7.162 7.161 7.162h150.51c3.955 0 7.161-3.207 7.161-7.162s-3.206-7.16-7.161-7.16h-150.51c-3.956 0-7.162 3.21-7.162 7.16z"/><path id="path14" d="m142.4 336.44h-135.24c-3.954 0-7.16 3.2-7.16 7.16s3.206 7.161 7.161 7.161h135.24c3.955 0 7.161-3.206 7.161-7.161s-3.21-7.16-7.16-7.16z"/><path id="path16" d="m385.73 154.42c21.6 0 39.111-17.513 39.111-39.114s-17.512-39.113-39.111-39.113c-21.605 0-39.119 17.513-39.119 39.113 0 21.59 17.51 39.11 39.12 39.11z"/><path id="path18" d="m450.07 143.16c-22.459 31.459-52.533 35.102-84.895 15.89-2.203-1.306-11.977-6.691-14.141-7.977-52.061-30.906-104.06-18.786-138.93 30.05-14.819 20.771 19.455 40.459 34.108 19.93 18.018-25.232 40.929-32.533 65.986-24.541-12.83 22.27-24.047 44.405-39.875 75.853-15.832 31.448-50.787 56.562-84.374 36.92-24.235-14.165-46.09 20.651-21.928 34.772 45.854 26.799 99.619 10.343 127.07-24.493 0.952 0.509 1.958 0.968 3.062 1.354 22.422 7.812 51.814 28.61 60.77 35.981 8.953 7.371 24.336 44.921 33.471 63.788 11.082 22.893 46.871 6.219 35.748-16.771-10.355-21.406-27.736-64.129-41.293-74.938-10.875-8.669-31.988-24.803-49.895-33.956 12.115-23.466 24.729-46.679 38.008-69.491 42.328 12.969 82.561-2.308 111.22-42.446 14.79-20.76-19.48-40.45-34.14-19.91z"/></g></g></g></svg>
