<?xml version="1.0" encoding="UTF-8" standalone="no"?>
<!-- Generator: Adobe Illustrator 16.0.0, SVG Export Plug-In . SVG Version: 6.00 Build 0)  -->

<svg
   xmlns:dc="http://purl.org/dc/elements/1.1/"
   xmlns:cc="http://creativecommons.org/ns#"
   xmlns:rdf="http://www.w3.org/1999/02/22-rdf-syntax-ns#"
   xmlns:svg="http://www.w3.org/2000/svg"
   xmlns="http://www.w3.org/2000/svg"
   xmlns:sodipodi="http://sodipodi.sourceforge.net/DTD/sodipodi-0.dtd"
   xmlns:inkscape="http://www.inkscape.org/namespaces/inkscape"
   version="1.1"
   id="Capa_1"
   x="0px"
   y="0px"
   width="430.47px"
   height="430.47px"
   viewBox="0 0 430.47 430.47"
   style="enable-background:new 0 0 430.47 430.47;"
   xml:space="preserve"
   inkscape:version="0.91 r"
   sodipodi:docname="fish.svg"><metadata
     id="metadata45"><rdf:RDF><cc:Work
         rdf:about=""><dc:format>image/svg+xml</dc:format><dc:type
           rdf:resource="http://purl.org/dc/dcmitype/StillImage" /></cc:Work></rdf:RDF></metadata><defs
     id="defs43" /><sodipodi:namedview
     pagecolor="#ffffff"
     bordercolor="#666666"
     borderopacity="1"
     objecttolerance="10"
     gridtolerance="10"
     guidetolerance="10"
     inkscape:pageopacity="0"
     inkscape:pageshadow="2"
     inkscape:window-width="640"
     inkscape:window-height="480"
     id="namedview41"
     showgrid="false"
     inkscape:zoom="0.54823797"
     inkscape:cx="215.235"
     inkscape:cy="211.58695"
     inkscape:current-layer="Capa_1" /><g
     id="g3"
     transform="matrix(-1,0,0,1,430.47112,0)"><g
       id="g5"><path
         d="m 86.026,167.328 c -7.716,0 -14.003,6.263 -14.003,14.003 0,7.743 6.287,14.002 14.003,14.002 7.767,0 14.027,-6.259 14.027,-14.002 0,-7.74 -6.26,-14.003 -14.027,-14.003 z"
         id="path7"
         inkscape:connector-curvature="0" /><path
         d="m 412.332,257.873 c 0,-13.215 -2.102,-24.902 -7.956,-32.777 6.232,-7.876 8.45,-19.827 8.45,-33.433 l 12.887,-65.851 c 0,-23.729 15.139,-42.966 -8.591,-42.966 l -20.04,0 c -23.728,0 -42.956,19.237 -42.956,42.966 l -20.082,38.518 c -11.271,-11.25 -26.582,-21.103 -44.985,-30.438 0.04,-0.224 0.061,-0.424 0.106,-0.648 -23.935,-0.812 -13.989,-8.227 1.092,-7.961 5.757,-37.024 18.662,-67.137 -23.956,-60.614 -36.756,5.62 -102.043,22.46 -136.494,48.575 C 89.383,120.337 0,166.879 0,212.114 c 0,3.666 51.208,74.187 122.067,88.878 28.465,32.399 106.87,53.21 148.557,59.573 47.213,7.24 26.319,-30.495 22.473,-72.744 -22.717,7.707 -12.504,-4.158 1.265,-8.854 10.348,-5.576 19.68,-10.632 27.693,-15.76 l 31.59,60.545 c 0,23.714 19.234,42.942 42.967,42.942 l 20.038,0 c 23.729,0 8.593,-19.229 8.593,-42.942 L 412.332,257.873 Z M 83.035,202.814 c -11.853,0 -21.483,-9.606 -21.483,-21.483 0,-11.853 9.63,-21.478 21.483,-21.478 11.867,0 21.479,9.625 21.479,21.478 0,11.877 -9.612,21.483 -21.479,21.483 z"
         id="path9"
         inkscape:connector-curvature="0" /></g></g><g
     id="g11" /><g
     id="g13" /><g
     id="g15" /><g
     id="g17" /><g
     id="g19" /><g
     id="g21" /><g
     id="g23" /><g
     id="g25" /><g
     id="g27" /><g
     id="g29" /><g
     id="g31" /><g
     id="g33" /><g
     id="g35" /><g
     id="g37" /><g
     id="g39" /></svg>