<?xml version="1.0" encoding="UTF-8" standalone="no"?>
<svg id="Слой_1" xmlns:rdf="http://www.w3.org/1999/02/22-rdf-syntax-ns#" xmlns="http://www.w3.org/2000/svg" xml:space="preserve" viewBox="0 0 372.00001 258.6" height="258.6" width="372" version="1.1" y="0px" x="0px" xmlns:cc="http://creativecommons.org/ns#" xmlns:dc="http://purl.org/dc/elements/1.1/"><g id="g3" transform="translate(-126,-291.3)"><path id="path5" d="m492 523.6c-12.1 0-20.4-15.7-29.9-34-9.3-17.7-19.6-37.5-36.9-50.4 17.3-12.9 27.6-32.7 36.9-50.4 9.6-18.2 17.8-34 29.9-34 3.3 0 6-2.7 6-6s-2.7-6-6-6c-19.4 0-29.7 19.6-40.6 40.4-9.2 17.6-19.6 37.4-36.6 48.5-8-7.3-16.1-15.8-24.7-24.6-14.3-14.7-30.1-31.1-47.9-44.9v-36.2c0-1.1-0.3-2.1-0.8-3-11.5-19.5-32.7-31.7-55.3-31.7-27 0-50.8 16.6-60.1 41.7-13.1 3.6-25.4 9.5-36.5 17.8-17.5 13-30.5 30.5-37.9 50.8h-3.8c-12 0-21.8 9.8-21.8 21.8 0 7 3.4 13.3 8.5 17.3-3.3 3.8-5.4 8.8-5.4 14.3 0 12 9.8 21.8 21.8 21.8h0.6c7.4 20.3 20.4 37.8 37.9 50.8 19.1 14.2 41.8 21.7 65.6 21.7 18.6 0 36.5-4.1 54.2-12.5 7.1 8.2 17.5 13.1 28.6 13.1 20.9 0 37.9-17 37.9-37.9 0-7.2-2.1-14.2-5.9-20.2 7.1-6.9 13.9-13.9 20.3-20.6 8.6-8.9 16.7-17.3 24.7-24.6 17 11.1 27.4 30.9 36.6 48.5 10.9 20.8 21.2 40.4 40.6 40.4 3.3 0 6-2.7 6-6 0-3.2-2.7-5.9-6-5.9zm-205.9-220.2c17.9 0 34.7 9.3 44.2 24.4v25.8c-24.6-16.4-49.3-24.4-75.2-24.4-4.9 0-9.8 0.3-14.6 1 9-16.4 26.3-26.8 45.6-26.8zm77.6 208.7c0 14.3-11.6 25.9-25.9 25.9-6.6 0-12.8-2.5-17.5-6.9 4-2.3 8.1-4.9 12.1-7.6 10-6.9 19.5-14.8 28.5-23.1 1.8 3.6 2.8 7.6 2.8 11.7zm17.8-49.1c-33.7 34.9-71.9 74.4-126.5 74.4-42.9 0-80.5-27.5-93.5-68.3-0.8-2.5-3.1-4.2-5.7-4.2h-4.8c-5.4 0-9.8-4.4-9.8-9.8s4.4-9.8 9.8-9.8c3.3 0 6-2.7 6-6s-2.7-6-6-6h-3.2c-5.4 0-9.8-4.4-9.8-9.8s4.4-9.8 9.8-9.8h8.1c2.6 0 4.9-1.7 5.7-4.2 10.6-33.2 37.3-57.5 70-65.5 0.2 0 0.5-0.1 0.7-0.2 7.3-1.7 15-2.7 22.8-2.7 54.5 0 92.7 39.5 126.5 74.4 8.2 8.4 16 16.5 23.7 23.7-7.8 7.3-15.6 15.3-23.8 23.8z"/><path id="path7" d="m222.7 377c-16.9 0-30.7 13.8-30.7 30.7s13.8 30.7 30.7 30.7 30.7-13.8 30.7-30.7-13.8-30.7-30.7-30.7zm0 49.4c-10.3 0-18.7-8.4-18.7-18.7s8.4-18.7 18.7-18.7 18.7 8.4 18.7 18.7-8.4 18.7-18.7 18.7z"/></g><circle id="circle9" cy="116.7" cx="90.2" r="12.9"/></svg>
