<?xml version="1.0" encoding="UTF-8" standalone="no"?>
<svg id="Capa_1" xmlns:rdf="http://www.w3.org/1999/02/22-rdf-syntax-ns#" style="enable-background:new 0 0 174.344 174.344" xmlns="http://www.w3.org/2000/svg" xml:space="preserve" height="512px" viewBox="0 0 174.344 174.344" width="512px" version="1.1" y="0px" x="0px" xmlns:cc="http://creativecommons.org/ns#" xmlns:dc="http://purl.org/dc/elements/1.1/"><g id="g3"><g id="g5" fill="#000000"><path id="path7" d="m72.351 91.771l-10.947 10.953c-.594.597-.594 1.555 0 2.146.591.591 1.549.591 2.143 0l14.47-14.473-5.666 1.374z"/><path id="path9" d="m67.747 111.55c.993.993 3.032.987 4.909.16l.798-1.709 2.68-11.117-7.317 7.312c-1.768 1.77-2.25 4.18-1.07 5.35z"/><path id="path11" d="m11.299 48.699l19.26-19.261c1.702-1.699 4.424-1.726 6.203-.139l-24.396 24.397c-.594.594-.594 1.552 0 2.146.591.591 1.549.591 2.143 0l24.426-24.435 2.32 2.317-24.436 24.435c-.594.591-.594 1.549 0 2.143s1.549.594 2.143 0l24.435-24.435 2.317 2.32-24.435 24.426c-.591.594-.591 1.552 0 2.143.594.594 1.551.594 2.143 0l24.435-24.43 2.32 2.32-24.435 24.435c-.594.592-.594 1.549 0 2.143.594.591 1.549.591 2.143 0l24.435-24.435 2.317 2.317-24.429 24.435c-.591.594-.591 1.549 0 2.143.594.594 1.545.594 2.143 0l24.429-24.435 2.317 2.32-24.433 24.432c-.594.594-.594 1.551 0 2.143.591.594 1.548.594 2.143 0l24.432-24.433 2.32 2.317-24.435 24.43c-.594.591-.594 1.548 0 2.143.594.591 1.549.591 2.143 0l24.436-24.429 2.317 2.317-24.437 24.434c-.591.594-.591 1.549 0 2.143.594.594 1.552.594 2.143 0l24.435-24.435 2.317 2.32-20.983 20.983 8.015-3.735 15.105-15.111 2.32 2.317-8.748 8.745 8.015-3.732 2.87-2.87 1.017 1.017 6.458-3.945 2.94-3.771-48.22-48.223c-1.767-1.767-4.654-1.767-6.422 0l-27.82 27.817c-1.768 1.767-2.243 4.17-1.07 5.352 1.174 1.18 3.583.665 5.344-1.096z"/><path id="path13" d="m168.32 143.66c-8.565-8.559-60.994-60.984-60.994-60.984-.986-.993-2.316-2.317-3.623-3.617l-3.765 2.94-4.25 7.001-6.44 13.828c4.247-1.772 8.301-2.89 10.589-1.962 19.801 8.026 29.689 46.802 38.521 55.632 8.83 8.82 35.31-7.5 29.96-12.84z"/><path id="path15" d="m56.948 98.261c-.591.597-.591 1.549 0 2.146.594.597 1.551.597 2.143 0l7.143-7.146-5.671 1.383-3.615 3.614z"/><path id="path17" d="m75.7 124.75l17.407-37.33 4.536-7.474 70.888-55.369-.821-1.768-56.034 34.046 34.046-56.037-1.78-.818-55.365 70.888-7.468 4.54-37.339 17.407c-6.052-7.409-16.547-10.146-25.608-5.92-10.713 4.998-15.362 17.775-10.367 28.485 4.998 10.717 17.776 15.369 28.49 10.368 10.71-4.989 15.359-17.78 10.367-28.49l10.592-4.936 25.044-6.1-6.1 25.05-4.944 10.586c-10.713-5-23.492-.343-28.484 10.367-4.995 10.711-.346 23.49 10.368 28.49 1.2.556 2.415.958 3.65 1.277l-2.819 12.329 6.735-1.229 1.212-10.414c8.163.094 16.045-4.457 19.707-12.336 4.221-9.07 1.488-19.56-5.921-25.62zm14.564-52.198c1.579-1.578 4.143-1.578 5.718 0 1.572 1.578 1.579 4.146 0 5.719-1.581 1.581-4.146 1.581-5.727 0-1.572-1.573-1.572-4.141.009-5.719zm-56.268 48.328c-8.012 3.741-17.576.255-21.311-7.755-3.739-8.015-.254-17.578 7.761-21.314 8.018-3.748 17.582-.26 21.317 7.755 3.741 8.019.260 17.579-7.767 21.319zm42.726 27.21c-3.732 8.015-13.291 11.49-21.306 7.761-8.018-3.742-11.499-13.3-7.764-21.309 3.745-8.026 13.302-11.515 21.317-7.767 8.013 3.74 11.5 13.3 7.753 21.32z"/></g></g></svg>
