<?xml version="1.0" encoding="UTF-8" standalone="no"?>
<svg
   xmlns:dc="http://purl.org/dc/elements/1.1/"
   xmlns:cc="http://creativecommons.org/ns#"
   xmlns:rdf="http://www.w3.org/1999/02/22-rdf-syntax-ns#"
   xmlns:svg="http://www.w3.org/2000/svg"
   xmlns="http://www.w3.org/2000/svg"
   xml:space="preserve"
   style="enable-background:new 0 0 200.102 200.102;"
   viewBox="0 0 200.102 200.102"
   y="0px"
   x="0px"
   id="Capa_1"
   version="1.1"><metadata
     id="metadata43"><rdf:RDF><cc:Work
         rdf:about=""><dc:format>image/svg+xml</dc:format><dc:type
           rdf:resource="http://purl.org/dc/dcmitype/StillImage" /><dc:title></dc:title></cc:Work></rdf:RDF></metadata><defs
     id="defs41" /><g
     id="g3"><path
       id="path5"
       d="M192.602,175.124h-11.387V54.31c0-4.142-3.357-7.5-7.5-7.5h-29.332V17.478c0-4.142-3.357-7.5-7.5-7.5H63.219   c-4.143,0-7.5,3.358-7.5,7.5V46.81H26.387c-4.142,0-7.5,3.358-7.5,7.5v120.814H7.5c-4.143,0-7.5,3.358-7.5,7.5   c0,4.142,3.357,7.5,7.5,7.5h18.887h46.039h55.248h46.041h18.887c4.143,0,7.5-3.358,7.5-7.5   C200.102,178.482,196.744,175.124,192.602,175.124z M70.719,24.978h58.664v58.664H70.719V24.978z M79.926,175.124v-39.156h12.625   v39.156H79.926z M107.551,175.124v-39.156h12.623v39.156H107.551z M135.174,175.124v-46.656c0-4.142-3.357-7.5-7.5-7.5H72.426   c-4.143,0-7.5,3.358-7.5,7.5v46.656H33.887V61.81h21.832v29.332c0,4.142,3.357,7.5,7.5,7.5h73.664c4.143,0,7.5-3.358,7.5-7.5V61.81   h21.832v113.314H135.174z" /><path
       id="path7"
       d="M84.287,61.81h8.264v8.264c0,4.142,3.357,7.5,7.5,7.5c4.143,0,7.5-3.358,7.5-7.5V61.81h8.264c4.143,0,7.5-3.358,7.5-7.5   s-3.357-7.5-7.5-7.5h-8.264v-8.264c0-4.142-3.357-7.5-7.5-7.5c-4.143,0-7.5,3.358-7.5,7.5v8.264h-8.264c-4.143,0-7.5,3.358-7.5,7.5   S80.145,61.81,84.287,61.81z" /></g><g
     id="g9" /><g
     id="g11" /><g
     id="g13" /><g
     id="g15" /><g
     id="g17" /><g
     id="g19" /><g
     id="g21" /><g
     id="g23" /><g
     id="g25" /><g
     id="g27" /><g
     id="g29" /><g
     id="g31" /><g
     id="g33" /><g
     id="g35" /><g
     id="g37" /></svg>