<?xml version="1.0" encoding="UTF-8" standalone="no"?>
<svg
   xmlns:dc="http://purl.org/dc/elements/1.1/"
   xmlns:cc="http://creativecommons.org/ns#"
   xmlns:rdf="http://www.w3.org/1999/02/22-rdf-syntax-ns#"
   xmlns:svg="http://www.w3.org/2000/svg"
   xmlns="http://www.w3.org/2000/svg"
   xml:space="preserve"
   style="enable-background:new 0 0 447.907 447.907;"
   viewBox="0 0 447.907 447.907"
   y="0px"
   x="0px"
   id="Capa_1"
   version="1.1"><metadata
     id="metadata51"><rdf:RDF><cc:Work
         rdf:about=""><dc:format>image/svg+xml</dc:format><dc:type
           rdf:resource="http://purl.org/dc/dcmitype/StillImage" /><dc:title></dc:title></cc:Work></rdf:RDF></metadata><defs
     id="defs49" /><g
     id="g3"><path
       id="path5"
       d="M419.486,141.249h-77.76V41.625c0-5.523-4.478-10-10-10h-59.471c-0.362-8.171-3.736-15.836-9.586-21.687   c-6.117-6.118-14.217-9.536-22.806-9.625c-5.623-0.078-11.011,1.309-15.767,3.937c-12.358-7.012-28.265-5.357-38.653,5.033   c-5.959,5.959-9.24,13.876-9.289,22.342h-59.973c-5.523,0-10,4.477-10,10v99.625H28.421c-5.523,0-10,4.477-10,10v286.658   c0,5.523,4.477,10,10,10h391.064c5.522,0,10-4.477,10-10V151.249C429.486,145.726,425.008,141.249,419.486,141.249z    M199.585,23.426c2.222-2.222,5.199-3.441,8.397-3.441c0.043,0,0.087,0,0.131,0c3.326,0.035,6.477,1.373,8.872,3.769   c1.875,1.875,4.419,2.929,7.071,2.929c2.652,0,5.196-1.054,7.071-2.929c2.252-2.251,5.292-3.454,8.527-3.44   c3.326,0.035,6.477,1.373,8.871,3.768c2.396,2.395,3.733,5.545,3.769,8.871c0.033,3.247-1.188,6.275-3.441,8.528L224.71,65.623   l-24.798-24.798c-2.396-2.395-3.733-5.545-3.768-8.871C196.111,28.706,197.333,25.678,199.585,23.426z M38.421,161.249h67.759   v22.923H65.165c-5.523,0-10,4.477-10,10s4.477,10,10,10h41.015v29.324H65.165c-5.523,0-10,4.477-10,10s4.477,10,10,10h41.015   v29.324H65.165c-5.523,0-10,4.477-10,10s4.477,10,10,10h41.015v29.335H65.165c-5.523,0-10,4.477-10,10s4.477,10,10,10h41.015   v29.324H65.165c-5.523,0-10,4.477-10,10s4.477,10,10,10h41.015v26.428H38.421V161.249z M232.209,427.907h-24.681v-49.918h24.681   V427.907z M252.209,427.907v-59.918c0-5.523-4.478-10-10-10h-44.681c-5.523,0-10,4.477-10,10v59.918h-61.348V51.625h56.671   c0.892,1.167,1.862,2.286,2.919,3.343l31.869,31.869c1.875,1.875,4.418,2.929,7.071,2.929s5.195-1.054,7.071-2.929l31.214-31.214   c1.249-1.249,2.374-2.589,3.384-3.997h55.347v376.282H252.209z M409.486,427.907h-67.76v-26.428h41.016c5.522,0,10-4.477,10-10   s-4.478-10-10-10h-41.016v-29.324h41.016c5.522,0,10-4.477,10-10s-4.478-10-10-10h-41.016v-29.335h41.016c5.522,0,10-4.477,10-10   s-4.478-10-10-10h-41.016v-29.324h41.016c5.522,0,10-4.477,10-10s-4.478-10-10-10h-41.016v-29.324h41.016c5.522,0,10-4.477,10-10   s-4.478-10-10-10h-41.016v-22.923h67.76V427.907z" /><path
       id="path7"
       d="M296.081,114.532h-144.25c-5.523,0-10,4.477-10,10s4.477,10,10,10h144.25c5.522,0,10-4.477,10-10   S301.604,114.532,296.081,114.532z" /><path
       id="path9"
       d="M296.081,163.859h-144.25c-5.523,0-10,4.477-10,10s4.477,10,10,10h144.25c5.522,0,10-4.477,10-10   S301.604,163.859,296.081,163.859z" /><path
       id="path11"
       d="M296.081,213.186h-144.25c-5.523,0-10,4.477-10,10s4.477,10,10,10h144.25c5.522,0,10-4.477,10-10   S301.604,213.186,296.081,213.186z" /><path
       id="path13"
       d="M296.081,262.513h-144.25c-5.523,0-10,4.477-10,10s4.477,10,10,10h144.25c5.522,0,10-4.477,10-10   S301.604,262.513,296.081,262.513z" /><path
       id="path15"
       d="M296.081,311.84h-144.25c-5.523,0-10,4.477-10,10s4.477,10,10,10h144.25c5.522,0,10-4.477,10-10   S301.604,311.84,296.081,311.84z" /></g><g
     id="g17" /><g
     id="g19" /><g
     id="g21" /><g
     id="g23" /><g
     id="g25" /><g
     id="g27" /><g
     id="g29" /><g
     id="g31" /><g
     id="g33" /><g
     id="g35" /><g
     id="g37" /><g
     id="g39" /><g
     id="g41" /><g
     id="g43" /><g
     id="g45" /></svg>