<?xml version="1.0" encoding="UTF-8" standalone="no"?>
<svg id="Capa_1" xmlns:rdf="http://www.w3.org/1999/02/22-rdf-syntax-ns#" style="enable-background:new 0 0 480.455 480.455" xmlns="http://www.w3.org/2000/svg" xml:space="preserve" height="512px" viewBox="0 0 480.455 480.455" width="512px" version="1.1" y="0px" x="0px" xmlns:cc="http://creativecommons.org/ns#" xmlns:dc="http://purl.org/dc/elements/1.1/"><g id="g3"><g id="g5" fill="#000000"><path id="path7" d="m236.15 44.328l224.33 267.65 19.972-16.742-230.91-275.51c-3.463-4.125-8.485-6.431-13.67-6.416-5.235.048-10.173 2.481-13.548 6.667l-222.32 275.45 20.279 16.366 215.87-267.47z"/><path id="path9" d="m232.88 68.73l-168.44 208.69 33.29 189.72h268.23l48.978-189.72-174.97-208.75c-1.98-2.372-5.15-2.341-7.09.06zm-54.7 146.25c15.044-7.853 36.239 3.042 47.337 24.326 11.093 21.272 7.901 44.885-7.14 52.73-15.043 7.855-36.231-3.042-47.329-24.324-11.11-21.28-7.91-44.89 7.13-52.74zm-55.09 108.93c-11.093-21.276-7.898-44.89 7.127-52.735 15.041-7.851 36.244 3.042 47.337 24.329 11.091 21.271 7.899 44.884-7.127 52.729-15.04 7.84-36.24-3.05-47.34-24.33zm227.14-52.74c15.041 7.846 18.24 31.453 7.135 52.735-11.101 21.276-32.286 32.169-47.327 24.323-15.046-7.846-18.245-31.458-7.134-52.729 11.1-21.27 32.29-32.17 47.33-24.32zm-95.27-31.86c11.091-21.276 32.297-32.171 47.327-24.326 15.036 7.845 18.235 31.456 7.135 52.732-11.091 21.277-32.296 32.169-47.337 24.324-15.02-7.84-18.23-31.45-7.12-52.72zm37.56 111.72c0 2.732-.279 5.388-.762 7.978 14.645 1.6 20.505 19.418 20.505 34.495 0 16.143-13.081 29.244-29.239 29.244-14.462 0-22.76-1.747-40.098-10.801-3.364.848-25.494 10.801-40.101 10.801-16.147 0-29.236-13.102-29.236-29.244 0-15.646 6.746-33.886 22.198-34.668-.467-2.533-.751-5.134-.751-7.805 0-23.841 24.902-48.743 48.743-48.743 23.85.01 48.75 24.91 48.75 48.75z"/></g></g></svg>
