<?xml version="1.0" encoding="UTF-8" standalone="no"?>
<svg id="Capa_1" xmlns:rdf="http://www.w3.org/1999/02/22-rdf-syntax-ns#" style="enable-background:new 0 0 31.986 31.986" xmlns="http://www.w3.org/2000/svg" xml:space="preserve" height="512px" viewBox="0 0 31.986 31.986" width="512px" version="1.1" y="0px" x="0px" xmlns:cc="http://creativecommons.org/ns#" xmlns:dc="http://purl.org/dc/elements/1.1/"><g id="g3"><g id="g5" fill="#000000"><path id="path7" d="m4.675 7.016v12.747c0 .021 0 .042.001.062.045.789.731 2.277 3.007 2.277 2.107 0 2.908-1.423 3.023-2.177.006-.054.038-.108.038-.163v-12.746c.41-.128.738-.541.738-1.031v-1.161c0-.593-.497-1.091-1.089-1.091h-5.422c-.591 0-1.034.498-1.034 1.091v1.161c0 .490.328.903.738 1.031zm.328-1.812c0-.201.144-.323.346-.323h4.667c.203 0 .4.122.4.323v.409c0 .201-.198.334-.4.334h-.017c-.202 0-.403.195-.403.397v13.42s-.185 1.268-1.928 1.268c-1.862 0-1.927-1.268-1.927-1.268v-13.421c0-.202-.174-.397-.375-.397h-.017c-.202 0-.346-.133-.346-.334v-.408z"/><path id="path9" d="m7.667 20.506c1.223 0 1.354-1.024 1.354-1.024v-3.366h-2.706v3.366c0-.001.047 1.024 1.352 1.024z"/><path id="path11" d="m13.04 7.016v12.747c0 .021.012.042.013.062.045.789.738 2.277 3.013 2.277 2.106 0 2.898-1.423 3.014-2.177.008-.054.029-.108.029-.163v-12.746c.41-.128.738-.541.738-1.031v-1.161c0-.593-.475-1.091-1.065-1.091h-5.422c-.591 0-1.058.498-1.058 1.091v1.161c0 .490.328.903.738 1.031zm.329-1.812c0-.201.167-.323.369-.323h4.668c.201 0 .376.122.376.323v.409c0 .201-.175.334-.376.334h-.018c-.201 0-.347.195-.347.397v13.42s-.228 1.268-1.968 1.268c-1.863 0-1.969-1.268-1.969-1.268v-13.421c0-.202-.149-.397-.351-.397h-.018c-.202 0-.369-.133-.369-.334l.003-.408z"/><path id="path13" d="m16.074 20.506c1.223 0 1.395-1.024 1.395-1.024v-3.366h-2.788v3.366c0-.001.088 1.024 1.393 1.024z"/><path id="path15" d="m21.488 7.016v12.747c0 .021-.004.042-.002.062.045.789.729 2.277 3.005 2.277 2.106 0 2.868-1.423 2.985-2.177.006-.054 0-.108 0-.163v-12.746c.489-.128.817-.541.817-1.031v-1.161c0-.593-.505-1.091-1.099-1.091h-5.422c-.592 0-1.024.498-1.024 1.091v1.161c.002.490.330.903.740 1.031zm.328-1.812c0-.201.136-.323.336-.323h4.67c.201 0 .324.122.324.323v.409c0 .201-.123.334-.324.334h-.018c-.203 0-.396.195-.396.397v13.42s-.186 1.268-1.928 1.268c-1.862 0-1.929-1.268-1.929-1.268v-13.421c0-.202-.182-.397-.384-.397h-.017c-.201 0-.336-.133-.336-.334v-.408h.002z"/><path id="path17" d="m24.48 20.506c1.223 0 1.354-1.024 1.354-1.024v-3.366h-2.707v3.366c.001-.001.048 1.024 1.353 1.024z"/><polygon id="polygon19" points="27.967 14.229 27.967 16.282 30.018 16.282 30.018 24.235 1.968 24.235 1.968 16.282 4.019 16.282 4.019 14.229 0 14.229 0 28.254 31.958 28.254 31.986 14.229"/></g></g></svg>
