<?xml version="1.0" encoding="UTF-8" standalone="no"?>
<svg id="Слой_1" xmlns:rdf="http://www.w3.org/1999/02/22-rdf-syntax-ns#" xmlns="http://www.w3.org/2000/svg" xml:space="preserve" viewBox="0 0 409.62571 389.99999" height="390" width="409.63" version="1.1" y="0px" x="0px" xmlns:cc="http://creativecommons.org/ns#" xmlns:xlink="http://www.w3.org/1999/xlink" xmlns:dc="http://purl.org/dc/elements/1.1/"><defs><rect id="SVGID_1_" y="226.9" x="92" height="391" width="409.9"/></defs><style id="style3" type="text/css">
	.st0{clip-path:url(#SVGID_2_);}
</style><g id="g5" transform="translate(-92,-226.9)"><path id="path7" d="m181.7 367.6c0-14.1-11.5-25.6-25.6-25.6s-25.6 11.5-25.6 25.6 11.5 25.6 25.6 25.6c14.1-0.1 25.6-11.5 25.6-25.6zm-38.3 0c0-7.1 5.7-12.8 12.8-12.8s12.8 5.7 12.8 12.8c0 7-5.7 12.8-12.8 12.8-7.1-0.1-12.8-5.8-12.8-12.8z"/><g id="g9"><clipPath id="SVGID_2_"><use id="use15" xlink:href="#SVGID_1_" height="100%" width="100%" y="0" x="0"/></clipPath><path id="path17" clip-path="url(#SVGID_2_)" class="st0" d="m216.9 463.5c5.9 0 9.6-6.1 9.6-16s-3.7-16-9.6-16-9.6 6.1-9.6 16 3.7 16 9.6 16z"/><path id="path19" clip-path="url(#SVGID_2_)" class="st0" d="m501.2 368.2c-2-21.8-10.2-41.8-23.3-56.2-12.3-13.7-27.6-21-43.4-21-11.8-15.1-38.2-18.8-61.8-22-13-1.8-29.2-4.1-32.9-8.1-2.3-2.5-10.2-10.6-18.6-18.2s-17.9-15.8-24.4-15.8-16 8.2-24.4 15.8c-8.3 7.6-16.2 15.7-18.6 18.2-3.8 4-19.9 6.2-32.9 8.1-23.5 3.3-50 7-61.8 22-15.8 0-31 7.3-43.4 21-13 14.5-21.3 34.5-23.3 56.2-2 21.8 2.6 42.9 12.9 59.5 8.5 13.7 20 23 33.1 27 0.6 0.7 1.3 1.3 2.1 1.7 12.8 6.4 14 23 15.3 40.6 0.1 1.8 0.3 3.6 0.4 5.3 1.5 18.3 21.1 46.4 50 71.4 44.9 39 78.4 43.2 90.7 43.2s45.8-4.2 90.7-43.2c28.9-25.1 48.5-53.1 50-71.4 0.1-1.8 0.3-3.5 0.4-5.3 1.3-17.6 2.5-34.2 15.3-40.6 0.8-0.4 1.5-1 2.1-1.7 13.1-4 24.6-13.3 33.1-27 10.1-16.6 14.6-37.7 12.7-59.5zm-396 1.2c3.3-37.1 27.1-65.6 53.9-65.6 1.1 0 2.2 0.1 3.4 0.2 12.3 1.1 21.4 8.5 26.9 22.1 5.3 13.1 7.1 31.3 5.2 52.6-1.9 21-6.9 38.2-14.3 49.6-7.8 11.8-17.7 17-30.3 15.9-28.3-2.7-48.3-36.2-44.8-74.8zm319.5 131.9c-1.2 14.7-19.9 40.5-45.6 62.8-28.9 25.1-59.7 40-82.3 40s-53.4-15-82.3-40c-25.7-22.3-44.4-48.1-45.6-62.8-0.1-1.7-0.3-3.5-0.4-5.2-1-13.6-2.1-28.6-9.3-39.6 12.7-1.7 23.5-9 31.6-21.4 8.6-13.2 14.3-32.3 16.4-55.5 4.1-45.8-7.8-76.9-32.2-86 1.9-1.2 4-2.3 6.4-3.2 1-0.2 5-0.3 10.4 3.1 9 5.7 25 22.9 31.1 74.7 3.3 28.2 11.8 78 31.5 93.8 1.2 0.9 2.6 1.4 4 1.4 1.9 0 3.7-0.8 5-2.4 2.2-2.8 1.8-6.8-1-9-4.4-3.5-19.1-19.9-26.8-85.3-5.9-50.2-21.1-72.3-33.9-81.9 7-1.3 14.2-2.3 20.9-3.3 18.8-2.6 33.6-4.7 40.5-12 11.7-12.4 28.5-27.7 33.7-29.8 5.2 2.1 22 17.4 33.7 29.8 6.9 7.3 21.7 9.3 40.5 12 6.7 0.9 13.9 1.9 20.9 3.3-12.8 9.7-28 31.8-33.9 81.9-7.7 65.3-22.5 81.8-26.8 85.3-2.8 2.2-3.2 6.2-1 9 1.3 1.6 3.1 2.4 5 2.4 1.4 0 2.8-0.5 4-1.4 19.7-15.8 28.2-65.5 31.5-93.8 6.1-51.8 22.1-69.1 31.1-74.7 5.4-3.4 9.4-3.3 10.4-3.1 2.3 1 4.5 2 6.4 3.2-24.4 9.1-36.3 40.1-32.2 86 2.1 23.1 7.8 42.3 16.4 55.5 8.1 12.4 18.9 19.6 31.6 21.4-7.2 11-8.3 25.9-9.3 39.6-0.1 1.8-0.3 3.5-0.4 5.2zm19.1-57.3c-12.7 1.1-22.6-4.1-30.3-15.9-7.5-11.4-12.5-28.5-14.3-49.6-1.9-21.3-0.1-39.5 5.2-52.6 5.5-13.5 14.5-20.9 26.9-22.1 1.1-0.1 2.3-0.2 3.4-0.2 26.7 0 50.5 28.5 53.9 65.6 3.3 38.8-16.7 72.3-44.8 74.8z"/></g><path id="path21" d="m437.5 342c-14.1 0-25.6 11.5-25.6 25.6s11.5 25.6 25.6 25.6 25.6-11.5 25.6-25.6-11.5-25.6-25.6-25.6zm0 38.3c-7.1 0-12.8-5.7-12.8-12.8s5.7-12.8 12.8-12.8c7 0 12.8 5.7 12.8 12.8s-5.8 12.8-12.8 12.8z"/><path id="path23" d="m413.3 495.6c-30.5-6.8-86-12.9-116.5-12.9s-86 6.2-116.5 12.9c-3.4 0.8-5.6 4.2-4.9 7.6 0.7 3 3.3 5 6.2 5 0.5 0 0.9-0.1 1.4-0.2 29.2-6.5 84.5-12.6 113.7-12.6s84.5 6.1 113.7 12.6c0.5 0.1 0.9 0.2 1.4 0.2 2.9 0 5.6-2 6.2-5 0.9-3.4-1.3-6.8-4.7-7.6z"/><path id="path25" d="m335.2 508.7c-9.2 3.7-26.8 5.9-38.4 5.9-11.7 0-29.3-2.2-38.4-5.9-3.3-1.3-7 0.3-8.3 3.5-1.3 3.3 0.3 7 3.5 8.3 11.1 4.5 30.2 6.9 43.2 6.9 13.1 0 32.1-2.4 43.2-6.9 3.3-1.3 4.9-5.1 3.5-8.3-1.2-3.2-5-4.8-8.3-3.5z"/><path id="path27" d="m376.7 463.5c5.9 0 9.6-6.1 9.6-16s-3.7-16-9.6-16-9.6 6.1-9.6 16 3.7 16 9.6 16z"/></g><circle id="circle29" cy="142.2" cx="70.6" r="9.2"/><circle id="circle31" cy="142.2" cx="339.1" r="9.2"/></svg>
