<?xml version="1.0" encoding="UTF-8" standalone="no"?>
<svg id="Capa_1" xmlns:rdf="http://www.w3.org/1999/02/22-rdf-syntax-ns#" style="enable-background:new 0 0 485.213 485.213" xmlns="http://www.w3.org/2000/svg" xml:space="preserve" height="512px" viewBox="0 0 485.213 485.213" width="512px" version="1.1" y="0px" x="0px" xmlns:cc="http://creativecommons.org/ns#" xmlns:dc="http://purl.org/dc/elements/1.1/"><g id="g3"><g id="g5" fill="#000000"><path id="path7" d="m471.88 407.57l-111.31-111.33c-16.586 25.795-38.536 47.734-64.331 64.321l111.32 111.32c17.772 17.768 46.587 17.768 64.321 0 17.77-17.73 17.77-46.55 0-64.31z"/><path id="path9" d="m363.91 181.96c0-100.49-81.47-181.96-181.95-181.96-100.49 0-181.96 81.473-181.96 181.96s81.473 181.95 181.96 181.95c100.48 0 181.95-81.47 181.95-181.95zm-181.95 136.46c-75.252 0-136.46-61.208-136.46-136.46s61.213-136.46 136.46-136.46c75.25 0 136.47 61.213 136.47 136.46-.01 75.25-61.22 136.46-136.47 136.46z"/><path id="path11" d="m75.817 181.96h30.322c0-41.803 34.014-75.814 75.816-75.814v-30.334c-58.52 0-106.14 47.624-106.14 106.14z"/></g></g></svg>
