<?xml version="1.0" encoding="UTF-8" standalone="no"?>
<svg id="Capa_1" xmlns:rdf="http://www.w3.org/1999/02/22-rdf-syntax-ns#" style="enable-background:new 0 0 416.093 416.093" xmlns="http://www.w3.org/2000/svg" xml:space="preserve" viewBox="0 0 416.093 416.093" height="512px" width="512px" version="1.1" y="0px" x="0px" xmlns:cc="http://creativecommons.org/ns#" xmlns:dc="http://purl.org/dc/elements/1.1/"><path id="path3" d="m358.53 177.58l-48.438-66.403c-3.899-6.771-11.207-11.344-19.567-11.344h-45.277c-8.866 0-16.551 5.142-20.239 12.598l-45.832 69.993-37.26 16.56c-1.824.811-3.453 1.917-4.868 3.242l-6.362-17.55c-.887-2.446-3.235-4.039-5.849-3.951-2.6.09-4.846 1.846-5.561 4.348l-3.523 12.33-5.485-6.051c-1.603-1.768-4.101-2.418-6.361-1.655-2.261.762-3.856 2.79-4.062 5.167l-1.254 14.452c-7.462 2.071-13.251 8.201-14.833 15.852l-23.586 9.514c-1.556.627-2.778 1.877-3.37 3.446-.592 1.57-.5 3.315.253 4.814 7.689 15.29 22.55 24.787 38.782 24.787 1.358 0 2.711-.064 4.057-.192l.197 89.27c-10.853 17.94-30.896 49.765-31.103 50.093-1.164 1.849-1.232 4.185-.176 6.098s3.068 3.101 5.253 3.101h19.523c2.027 0 3.918-1.024 5.025-2.723l31.936-48.966.407.054c-.441 5.287.079 13.021 4.384 21.771-10.186 2.617-21.395 9.395-21.395 23.863 0 3.314 2.687 6 6 6h71.369c.07 0 .141-.001.211-.004 7.8-.273 21.59-4.591 31.234-17.524.762 9.791 8.953 17.528 18.935 17.528 10.485 0 19.016-8.528 19.016-19.012v-126.38h14.365v126.38c0 10.483 8.527 19.012 19.01 19.012 10.485 0 19.016-8.528 19.016-19.012v-222.56l10.886 14.923-3.922 55.834c-.578 9.643 6.797 17.959 16.443 18.539.353.022.703.031 1.053.031 9.254 0 16.936-7.236 17.486-16.412l4.595-65.404c.006-.081.003-.161.005-.241.17-1.49-.22-2.99-1.11-4.22zm-194.86 98.1l-15.659-43.197c.339.02.678.037 1.02.037 2.456 0 4.847-.508 7.104-1.511l44.624-19.818c.039-.017.071-.044.108-.061 1.163-.431 2.203-1.22 2.934-2.336l18.878-28.83v140.76c-.512-.898-1.021-1.798-1.568-2.684-12.79-20.78-33.59-36.08-57.43-42.36z" fill="#000000"/><path id="path5" d="m270.22 89.908c24.788 0 44.955-20.166 44.955-44.954s-20.17-44.954-44.96-44.954c-24.787 0-44.953 20.166-44.953 44.954s20.17 44.954 44.95 44.954z" fill="#000000"/></svg>
