<svg xmlns:rdf="http://www.w3.org/1999/02/22-rdf-syntax-ns#" xmlns="http://www.w3.org/2000/svg" xml:space="preserve" height="74" viewBox="0 0 89.999596 74" width="90" version="1.1" y="0px" x="0px" xmlns:cc="http://creativecommons.org/ns#" xmlns:dc="http://purl.org/dc/elements/1.1/"><g transform="matrix(.99887 0 0 .99063 -5.0929 -11.888)"><polygon points="48.7 71.7 51.8 71.7 63.2 50.1 69.6 67.4 67.3 67.4 67.3 71.7 80.5 71.7 80.5 67.4 78.2 67.4 65.8 28.8 50.3 60.8 35 28.8 22.3 67.4 20.1 67.4 20.1 71.7 33 71.7 33 67.6 31 67.6 37.3 50.3"/><path d="m50 12c-12.1 0-23.5 4.8-32 13.4-8.4 8.6-13 19.9-12.9 31.8 0 10.4 3.7 20.6 10.4 28.7.4.5.9.7 1.5.7h13.2c10.1 0 23.1.1 33.9.1 8.8 0 16.2 0 19.5-.1.6 0 1.1-.3 1.5-.8 6.6-8.2 10.1-18.2 10.1-28.7 0-24.8-20.3-45.1-45.2-45.1zm32.5 70.6c-8.6.2-35.9.1-52.4 0h-12.2c-5.7-7.2-8.9-16.2-8.9-25.4 0-10.9 4.2-21.2 11.9-29 7.8-7.8 18.1-12.2 29.1-12.2 22.7 0 41.2 18.5 41.2 41.2 0 9.3-3 18.1-8.7 25.4z"/></g></svg>
