<?xml version="1.0" encoding="UTF-8" standalone="no"?>
<svg id="Capa_1" xmlns:rdf="http://www.w3.org/1999/02/22-rdf-syntax-ns#" style="enable-background:new 0 0 572.6 572.6" xmlns="http://www.w3.org/2000/svg" xml:space="preserve" height="512px" viewBox="0 0 572.6 572.6" width="512px" version="1.1" y="0px" x="0px" xmlns:cc="http://creativecommons.org/ns#" xmlns:dc="http://purl.org/dc/elements/1.1/"><g id="g3"><path id="path5" d="m464.53 317.11c0-75.049-40.443-140.18-99.302-172.02-4.445-31.794-31.736-56.355-64.728-56.355-7.368 0-14.432 1.279-21.047 3.529v-29.168c0-7.21-5.456-13.089-12.459-13.868v-22.74c0-.536-.109-1.041-.155-1.559h11.323c5.151 0 9.341-4.189 9.341-9.353v-6.229c0-5.164-4.189-9.347-9.341-9.347h-72.19c-5.163 0-9.353 4.183-9.353 9.347v6.229c0 5.164 4.189 9.353 9.353 9.353h11.311c-.052.518-.159 1.022-.159 1.559v22.746c-6.999.779-12.455 6.646-12.455 13.868v205.66c0 7.614 6.064 13.771 13.63 13.99v94.297h.484c2.195 2.666 11.779 7.014 23.27 7.014 11.512 0 21.096-4.348 23.285-7.014h.472v-94.297c7.563-.207 13.643-6.37 13.643-13.984v-52.68c6.615 2.25 13.679 3.528 21.047 3.528 23.468 0 44.024-12.458 55.582-31.063 39.786 26.536 66.378 74.229 66.378 128.55 0 33.686-10.236 64.825-27.469 89.949l-46.972 18.761v-1.225h-186.17v20.247h186.19v-8.957l35.451-14.163c-25.245 28.412-60.636 46.137-99.776 46.137v.348h-41.629v48.299h-133.99v56.08h292.15v-56.094h-74.008v-12.008c79.25-20.45 138.32-96.68 138.32-187.39zm-164.03-111.51c-28.354 0-51.42-23.065-51.42-51.417 0-28.351 23.066-51.417 51.42-51.417 22.457 0 41.553 14.499 48.543 34.62-6.126-2.539-12.386-4.752-18.81-6.573-6.924-8.811-17.658-14.489-29.745-14.489-20.911 0-37.857 16.953-37.857 37.859 0 20.907 16.953 37.854 37.857 37.854 12.921 0 24.319-6.491 31.164-16.38 4.231 1.696 8.354 3.611 12.373 5.73-9.07 14.51-25.16 24.22-43.51 24.22z" fill="#000000"/></g></svg>
