<?xml version="1.0" encoding="UTF-8" standalone="no"?>
<svg id="svg2" xmlns:rdf="http://www.w3.org/1999/02/22-rdf-syntax-ns#" xmlns="http://www.w3.org/2000/svg" enable-background="new 0 0 100 100" xml:space="preserve" height="89.977" width="90" version="1.1" y="0px" x="0px" xmlns:cc="http://creativecommons.org/ns#" xmlns:dc="http://purl.org/dc/elements/1.1/" viewBox="0 0 90.000153 89.976982"><path id="path4" style="fill:#000000" d="m89.077 75.608c-5.098 12.222-17.051 14.364-20.957 14.364-1.147 0-19.01.947-44.688-23.41-20.665-19.602-23.19-40.681-23.41-44.686-.214-3.901.903-13.687 14.365-20.958 1.668-.901 4.975-1.3 5.829-.446.379.379 11.678 18.972 11.975 19.588.297.615.446 1.221.446 1.815 0 .849-.605 1.911-1.816 3.185-1.21 1.274-2.526 2.442-3.949 3.503-1.423 1.062-2.739 2.187-3.95 3.376-1.21 1.188-1.815 2.166-1.815 2.93.082 1.983 1.707 9.086 14.086 19.963 12.381 10.88 18.345 13.945 18.918 14.157.574.212 1.051.317 1.433.317.765 0 1.742-.604 2.931-1.814 1.188-1.211 5.185-6.689 6.459-7.9 1.274-1.209 2.336-1.814 3.186-1.814.594 0 1.199.148 1.814.445.616.297 19.233 11.191 19.589 11.555.966.99.284 4.08-.446 5.83"/></svg>
