<svg xmlns:rdf="http://www.w3.org/1999/02/22-rdf-syntax-ns#" style="enable-background:new 0 0 511.001 511.001" xmlns="http://www.w3.org/2000/svg" xml:space="preserve" version="1.1" y="0px" x="0px" xmlns:cc="http://creativecommons.org/ns#" xmlns:dc="http://purl.org/dc/elements/1.1/" viewBox="0 0 511.001 511.001"><g transform="matrix(1 0 0 -1 0 511)"><path d="m255.5 296.75c-8.133 0-14.75 6.617-14.75 14.75s6.617 14.75 14.75 14.75 14.75-6.617 14.75-14.75-6.617-14.75-14.75-14.75zm-.25 14.75c0-.138.112-.25.25-.25s.25.112.25.25c0 .276-.5.276-.5 0z"/><path d="m167.5 32c-26.191 0-47.5 21.309-47.5 47.5s21.309 47.5 47.5 47.5 47.5-21.309 47.5-47.5-21.308-47.5-47.5-47.5zm0 80c-17.92 0-32.5-14.579-32.5-32.5s14.58-32.5 32.5-32.5 32.5 14.579 32.5 32.5-14.579 32.5-32.5 32.5z"/><path d="m343.51 32c-26.191 0-47.5 21.309-47.5 47.5s21.309 47.5 47.5 47.5 47.5-21.309 47.5-47.5-21.308-47.5-47.5-47.5zm0 80c-17.92 0-32.5-14.579-32.5-32.5s14.58-32.5 32.5-32.5 32.5 14.579 32.5 32.5-14.579 32.5-32.5 32.5z"/><path d="m343.5 0c-43.836 0-79.5 35.664-79.5 79.5 0 18.648 6.545 36.562 18.508 50.872l-18.258 83.175-8.748 26.243-8.762-26.286-18.249-83.132c11.97-14.31 18.51-32.222 18.51-50.87 0-43.836-35.66-79.5-79.5-79.5s-79.5 35.664-79.5 79.5c0 20.157 7.563 39.374 21.297 54.11 12.913 13.856 30.156 22.578 48.844 24.774l49.859 59.831v72.61c0 8.904.885 17.845 2.631 26.574l37.514 187.57c.149.743.407 1.434.747 2.069.001.003.003.005.005.008.111.207.231.406.359.599.006.009.013.019.019.028.124.185.256.363.395.535.014.017.027.034.041.05.135.163.275.32.422.471.021.021.041.043.062.064.149.149.304.292.465.427.02.017.039.035.059.052.361.298.748.562 1.157.789.054.03.111.056.167.085.153.08.308.156.467.225.063.027.126.052.189.077.165.066.332.127.501.182.055.018.11.036.166.052.195.058.393.107.593.15.025.005.049.014.074.019.011.002.022.002.033.005.223.043.449.078.677.101.013.0010.026.003.039.005.234.022.47.036.708.036h.01.01c.238 0 .474-.014.708-.036.013-.001.027-.004.04-.005.228-.023.453-.057.676-.101.011-.002.022-.003.033-.005.025-.005.049-.014.074-.019.2-.042.398-.092.593-.15.056-.017.112-.035.167-.052.169-.055.335-.115.499-.182.064-.026.129-.051.192-.078.158-.069.312-.145.464-.224.056-.029.114-.056.169-.086.409-.226.796-.49 1.156-.788.021-.018.041-.037.062-.055.16-.135.314-.276.462-.424.022-.022.043-.045.065-.067.146-.15.286-.306.419-.468.014-.018.029-.035.043-.053.138-.171.27-.349.393-.533l.021-.03c.128-.192.247-.391.357-.596.002-.003.004-.007.006-.011.34-.635.598-1.326.747-2.068l37.515-187.57c1.746-8.73 2.631-17.671 2.631-26.574v-72.616l49.854-59.825c18.688-2.196 35.931-10.918 48.844-24.774 13.733-14.736 21.297-33.953 21.297-54.11.02-43.832-35.64-79.496-79.48-79.496zm-120.5 223h11.094l12.825 38.475-23.919 23.919v-62.394zm-60.494-79.259c-33.368-2.56-59.506-30.778-59.506-64.241 0-35.565 28.935-64.5 64.5-64.5s64.5 28.935 64.5 64.5c0 16.189-6.093 31.704-17.157 43.688-1.663 1.801-2.341 4.302-1.815 6.696l17.147 78.116h-11.163l-51.318-61.583c-1.297-1.556-3.168-2.521-5.188-2.676zm125.5 147.08c0 7.918-.787 15.869-2.34 23.632l-30.17 150.82-30.16-150.81c-.581-2.901-1.054-5.829-1.419-8.771l36.701-36.701c.018-.017.034-.035.052-.051l.13-.13c.018-.018.033-.038.051-.056.011-.011.022-.023.033-.035.042-.042.084-.084.125-.128.094-.101.183-.206.271-.312.029-.035.056-.071.085-.106.006-.008.012-.016.019-.023.027-.035.055-.068.082-.103.088-.115.171-.233.252-.354.033-.048.064-.098.095-.147.02-.032.041-.063.061-.095.076-.123.148-.248.217-.376.031-.057.061-.114.09-.172.017-.033.032-.066.049-.099.062-.126.121-.253.175-.384.025-.059.049-.117.072-.176.017-.043.032-.088.048-.131.029-.079.064-.153.091-.233l14.29-42.874h11.094v67.825zm60.488-147.08c-2.02.155-3.891 1.121-5.188 2.677l-51.32 61.58h-11.163l17.148-78.116c.525-2.395-.152-4.895-1.815-6.696-11.07-11.98-17.16-27.49-17.16-43.68 0-35.565 28.935-64.5 64.5-64.5s64.5 28.935 64.5 64.5c0 33.463-26.138 61.681-59.507 64.241z"/></g></svg>
