<?xml version="1.0" encoding="UTF-8" standalone="no"?>
<svg
   xmlns:dc="http://purl.org/dc/elements/1.1/"
   xmlns:cc="http://creativecommons.org/ns#"
   xmlns:rdf="http://www.w3.org/1999/02/22-rdf-syntax-ns#"
   xmlns:svg="http://www.w3.org/2000/svg"
   xmlns="http://www.w3.org/2000/svg"
   xml:space="preserve"
   style="enable-background:new 0 0 511.001 511.001;"
   viewBox="0 0 511.001 511.001"
   y="0px"
   x="0px"
   id="Capa_1"
   version="1.1"><metadata
     id="metadata47"><rdf:RDF><cc:Work
         rdf:about=""><dc:format>image/svg+xml</dc:format><dc:type
           rdf:resource="http://purl.org/dc/dcmitype/StillImage" /><dc:title></dc:title></cc:Work></rdf:RDF></metadata><defs
     id="defs45" /><g
     id="g3"><path
       id="path5"
       d="M255.501,296.75c-8.133,0-14.75,6.617-14.75,14.75s6.617,14.75,14.75,14.75s14.75-6.617,14.75-14.75   S263.634,296.75,255.501,296.75z M255.251,311.5c0-0.138,0.112-0.25,0.25-0.25s0.25,0.112,0.25,0.25   C255.751,311.776,255.251,311.776,255.251,311.5z" /><path
       id="path7"
       d="M167.495,32c-26.191,0-47.5,21.309-47.5,47.5s21.309,47.5,47.5,47.5s47.5-21.309,47.5-47.5S193.687,32,167.495,32z    M167.495,112c-17.92,0-32.5-14.579-32.5-32.5s14.58-32.5,32.5-32.5s32.5,14.579,32.5,32.5S185.416,112,167.495,112z" /><path
       id="path9"
       d="M343.506,32c-26.191,0-47.5,21.309-47.5,47.5s21.309,47.5,47.5,47.5s47.5-21.309,47.5-47.5S369.698,32,343.506,32z    M343.506,112c-17.92,0-32.5-14.579-32.5-32.5s14.58-32.5,32.5-32.5s32.5,14.579,32.5,32.5S361.427,112,343.506,112z" /><path
       id="path11"
       d="M343.501,0c-43.836,0-79.5,35.664-79.5,79.5c0,18.648,6.545,36.562,18.508,50.872l-18.258,83.175l-8.748,26.243   l-8.762-26.286l-18.249-83.132c11.963-14.31,18.508-32.224,18.508-50.872c0-43.836-35.664-79.5-79.5-79.5s-79.5,35.664-79.5,79.5   c0,20.157,7.563,39.374,21.297,54.11c12.913,13.856,30.156,22.578,48.844,24.774l49.859,59.831v72.61   c0,8.904,0.885,17.845,2.631,26.574l37.514,187.571c0.149,0.743,0.407,1.434,0.747,2.069c0.001,0.003,0.003,0.005,0.005,0.008   c0.111,0.207,0.231,0.406,0.359,0.599c0.006,0.009,0.013,0.019,0.019,0.028c0.124,0.185,0.256,0.363,0.395,0.535   c0.014,0.017,0.027,0.034,0.041,0.05c0.135,0.163,0.275,0.32,0.422,0.471c0.021,0.021,0.041,0.043,0.062,0.064   c0.149,0.149,0.304,0.292,0.465,0.427c0.02,0.017,0.039,0.035,0.059,0.052c0.361,0.298,0.748,0.562,1.157,0.789   c0.054,0.03,0.111,0.056,0.167,0.085c0.153,0.08,0.308,0.156,0.467,0.225c0.063,0.027,0.126,0.052,0.189,0.077   c0.165,0.066,0.332,0.127,0.501,0.182c0.055,0.018,0.11,0.036,0.166,0.052c0.195,0.058,0.393,0.107,0.593,0.15   c0.025,0.005,0.049,0.014,0.074,0.019c0.011,0.002,0.022,0.002,0.033,0.005c0.223,0.043,0.449,0.078,0.677,0.101   c0.013,0.001,0.026,0.003,0.039,0.005c0.234,0.022,0.47,0.036,0.708,0.036c0.003,0,0.007,0,0.01,0s0.007,0,0.01,0   c0.238,0,0.474-0.014,0.708-0.036c0.013-0.001,0.027-0.004,0.04-0.005c0.228-0.023,0.453-0.057,0.676-0.101   c0.011-0.002,0.022-0.003,0.033-0.005c0.025-0.005,0.049-0.014,0.074-0.019c0.2-0.042,0.398-0.092,0.593-0.15   c0.056-0.017,0.112-0.035,0.167-0.052c0.169-0.055,0.335-0.115,0.499-0.182c0.064-0.026,0.129-0.051,0.192-0.078   c0.158-0.069,0.312-0.145,0.464-0.224c0.056-0.029,0.114-0.056,0.169-0.086c0.409-0.226,0.796-0.49,1.156-0.788   c0.021-0.018,0.041-0.037,0.062-0.055c0.16-0.135,0.314-0.276,0.462-0.424c0.022-0.022,0.043-0.045,0.065-0.067   c0.146-0.15,0.286-0.306,0.419-0.468c0.014-0.018,0.029-0.035,0.043-0.053c0.138-0.171,0.27-0.349,0.393-0.533   c0.007-0.01,0.014-0.02,0.021-0.03c0.128-0.192,0.247-0.391,0.357-0.596c0.002-0.003,0.004-0.007,0.006-0.011   c0.34-0.635,0.598-1.326,0.747-2.068l37.515-187.571c1.746-8.73,2.631-17.671,2.631-26.574v-72.616l49.854-59.825   c18.688-2.196,35.931-10.918,48.844-24.774c13.733-14.736,21.297-33.953,21.297-54.11C423.001,35.664,387.337,0,343.501,0z    M223.001,223h11.094l12.825,38.475l-23.919,23.919V223z M162.507,143.741c-33.368-2.56-59.506-30.778-59.506-64.241   c0-35.565,28.935-64.5,64.5-64.5s64.5,28.935,64.5,64.5c0,16.189-6.093,31.704-17.157,43.688c-1.663,1.801-2.341,4.302-1.815,6.696   L230.176,208h-11.163l-51.318-61.583C166.398,144.861,164.527,143.896,162.507,143.741z M288.006,290.825   c0,7.918-0.787,15.869-2.34,23.632l-30.163,150.812l-30.162-150.812c-0.581-2.901-1.054-5.829-1.419-8.771l36.701-36.701   c0.018-0.017,0.034-0.035,0.052-0.051l0.13-0.13c0.018-0.018,0.033-0.038,0.051-0.056c0.011-0.011,0.022-0.023,0.033-0.035   c0.042-0.042,0.084-0.084,0.125-0.128c0.094-0.101,0.183-0.206,0.271-0.312c0.029-0.035,0.056-0.071,0.085-0.106   c0.006-0.008,0.012-0.016,0.019-0.023c0.027-0.035,0.055-0.068,0.082-0.103c0.088-0.115,0.171-0.233,0.252-0.354   c0.033-0.048,0.064-0.098,0.095-0.147c0.02-0.032,0.041-0.063,0.061-0.095c0.076-0.123,0.148-0.248,0.217-0.376   c0.031-0.057,0.061-0.114,0.09-0.172c0.017-0.033,0.032-0.066,0.049-0.099c0.062-0.126,0.121-0.253,0.175-0.384   c0.025-0.059,0.049-0.117,0.072-0.176c0.017-0.043,0.032-0.088,0.048-0.131c0.029-0.079,0.064-0.153,0.091-0.233L276.911,223   h11.094V290.825z M348.494,143.741c-2.02,0.155-3.891,1.121-5.188,2.677L291.988,208h-11.163l17.148-78.116   c0.525-2.395-0.152-4.895-1.815-6.696c-11.064-11.983-17.157-27.498-17.157-43.688c0-35.565,28.935-64.5,64.5-64.5   s64.5,28.935,64.5,64.5C408.001,112.963,381.863,141.181,348.494,143.741z" /></g><g
     id="g13" /><g
     id="g15" /><g
     id="g17" /><g
     id="g19" /><g
     id="g21" /><g
     id="g23" /><g
     id="g25" /><g
     id="g27" /><g
     id="g29" /><g
     id="g31" /><g
     id="g33" /><g
     id="g35" /><g
     id="g37" /><g
     id="g39" /><g
     id="g41" /></svg>