<?xml version="1.0" encoding="UTF-8" standalone="no"?>
<svg
   xmlns:dc="http://purl.org/dc/elements/1.1/"
   xmlns:cc="http://creativecommons.org/ns#"
   xmlns:rdf="http://www.w3.org/1999/02/22-rdf-syntax-ns#"
   xmlns:svg="http://www.w3.org/2000/svg"
   xmlns="http://www.w3.org/2000/svg"
   xml:space="preserve"
   style="enable-background:new 0 0 512 512;"
   viewBox="0 0 512 512"
   y="0px"
   x="0px"
   id="Capa_1"
   version="1.1"><metadata
     id="metadata53"><rdf:RDF><cc:Work
         rdf:about=""><dc:format>image/svg+xml</dc:format><dc:type
           rdf:resource="http://purl.org/dc/dcmitype/StillImage" /><dc:title></dc:title></cc:Work></rdf:RDF></metadata><defs
     id="defs51" /><g
     id="g3"><path
       id="path5"
       d="M120,340c-4.418,0-8,3.582-8,8c0,6.617-5.383,12-12,12s-12-5.383-12-12s5.383-12,12-12c4.418,0,8-3.582,8-8s-3.582-8-8-8   c-15.439,0-28,12.561-28,28s12.561,28,28,28s28-12.561,28-28C128,343.582,124.418,340,120,340z" /><path
       id="path7"
       d="M432,340c-4.418,0-8,3.582-8,8c0,6.617-5.383,12-12,12s-12-5.383-12-12s5.383-12,12-12c4.418,0,8-3.582,8-8s-3.582-8-8-8   c-15.439,0-28,12.561-28,28s12.561,28,28,28s28-12.561,28-28C440,343.582,436.418,340,432,340z" /><path
       id="path9"
       d="M432,264H64c-4.418,0-8,3.582-8,8s3.582,8,8,8h368c4.418,0,8-3.582,8-8S436.418,264,432,264z" /><path
       id="path11"
       d="M512,288c0-1.525-0.435-2.946-1.176-4.159c-3.004-15.259-11.806-28.002-25.933-37.279C470.796,237.308,451.519,232,432,232   h-72.145l-29.716-55.188c-7.053-13.098-19.734-21.928-34.139-24.208V136c0-17.645-14.355-32-32-32h-64c-17.645,0-32,14.355-32,32   v16h-10.106c-16.085,0-31.324,8.418-39.901,22.004l-34.298,42.588c-5.609,0.898-10.947,1.705-16.135,2.489   c-19.514,2.951-34.927,5.281-46.223,9.662C16.059,230.789,0,237.018,0,256v64c0,22.056,17.944,40,40,40   c0.406,0,0.801-0.04,1.19-0.098C46.727,387.304,70.99,408,100,408c28.975,0,53.218-20.647,58.792-48h194.415   c5.575,27.353,29.817,48,58.792,48s53.218-20.647,58.792-48H504c4.418,0,8-3.582,8-8v-56c0-2.003-0.115-3.961-0.289-5.895   C511.894,289.434,512,288.73,512,288z M480,264c0.464,0,0.915-0.048,1.357-0.124c5.412,4.609,9.345,9.992,11.758,16.124H480   c-4.411,0-8-3.589-8-8S475.589,264,480,264z M341.683,232H153.532c-3.492,0-6.593-1.82-8.297-4.868   c-1.703-3.048-1.627-6.643,0.203-9.617l13.599-22.098c1.297-2.107,3.64-3.417,6.115-3.417H320c0.047,0,0.093-0.006,0.141-0.007   L341.683,232z M184,136c0-8.822,7.178-16,16-16h64c8.822,0,16,7.178,16,16v16h-96V136z M16,256c4.411,0,8,3.589,8,8s-3.589,8-8,8   V256z M100,392c-24.262,0-44-19.738-44-44s19.738-44,44-44s44,19.738,44,44S124.262,392,100,392z M412,392   c-24.262,0-44-19.738-44-44s19.738-44,44-44s44,19.738,44,44S436.262,392,412,392z M496,344h-24.148   c-2.067-31.224-28.113-56-59.852-56s-57.785,24.776-59.852,56H159.852c-2.067-31.224-28.113-56-59.852-56   c-31.741,0-57.789,24.78-59.852,56.007C40.098,344.007,40.05,344,40,344c-13.234,0-24-10.767-24-24v-32c13.234,0,24-10.767,24-24   c0-8.813-4.778-16.527-11.877-20.7c8.585-3.087,22.117-5.418,41.827-8.398c6.156-0.931,12.522-1.893,19.338-3.006   c1.945-0.317,3.705-1.343,4.941-2.878l36.525-45.354c0.211-0.262,0.406-0.538,0.583-0.825c5.632-9.152,15.808-14.839,26.555-14.839   h130.703c7.838,0,15.222,2.929,20.855,8h-144.3c-7.99,0-15.554,4.228-19.742,11.032l-13.598,22.097   c-4.911,7.98-5.114,17.628-0.544,25.808c4.571,8.18,12.894,13.063,22.264,13.063H352c0.542,0,1.071-0.055,1.583-0.158   c0.489,0.093,0.985,0.158,1.494,0.158H432c11.409,0,22.623,2.088,32.278,5.889C459.212,258.293,456,264.776,456,272   c0,13.233,10.766,24,24,24h16V344z" /><path
       id="path13"
       d="M208,128c-2.1,0-4.17,0.85-5.66,2.34c-1.49,1.49-2.34,3.56-2.34,5.66c0,2.1,0.85,4.17,2.34,5.66   c1.49,1.489,3.55,2.34,5.66,2.34c2.11,0,4.17-0.851,5.66-2.34c1.49-1.49,2.34-3.561,2.34-5.66c0-2.101-0.85-4.17-2.34-5.66   C212.17,128.85,210.1,128,208,128z" /><path
       id="path15"
       d="M232,128c-2.1,0-4.17,0.85-5.66,2.34c-1.49,1.49-2.34,3.56-2.34,5.66c0,2.1,0.85,4.17,2.34,5.66   c1.49,1.489,3.55,2.34,5.66,2.34c2.11,0,4.17-0.851,5.66-2.34c1.49-1.49,2.34-3.561,2.34-5.66c0-2.101-0.85-4.17-2.34-5.66   C236.17,128.85,234.1,128,232,128z" /><path
       id="path17"
       d="M256,128c-2.1,0-4.17,0.85-5.66,2.34c-1.49,1.49-2.34,3.56-2.34,5.66c0,2.1,0.85,4.17,2.34,5.66   c1.49,1.489,3.55,2.34,5.66,2.34c2.11,0,4.17-0.851,5.66-2.34c1.49-1.49,2.34-3.561,2.34-5.66c0-2.101-0.85-4.17-2.34-5.66   C260.17,128.85,258.1,128,256,128z" /></g><g
     id="g19" /><g
     id="g21" /><g
     id="g23" /><g
     id="g25" /><g
     id="g27" /><g
     id="g29" /><g
     id="g31" /><g
     id="g33" /><g
     id="g35" /><g
     id="g37" /><g
     id="g39" /><g
     id="g41" /><g
     id="g43" /><g
     id="g45" /><g
     id="g47" /></svg>