<?xml version="1.0" encoding="UTF-8" standalone="no"?>
<svg id="Capa_1" xmlns:rdf="http://www.w3.org/1999/02/22-rdf-syntax-ns#" style="enable-background:new 0 0 226.969 226.969" xmlns="http://www.w3.org/2000/svg" xml:space="preserve" viewBox="0 0 226.969 226.969" height="512px" width="512px" version="1.1" y="0px" x="0px" xmlns:cc="http://creativecommons.org/ns#" xmlns:dc="http://purl.org/dc/elements/1.1/"><g id="g3" fill="#000000"><path id="path5" d="m217.29 83.307c-1.024 0-2.075.146-3.124.436l-11.023 3.036-11.66-28.381c-3.491-8.506-13.813-15.427-23.009-15.427h-7.753v-23.529c0-4.136-3.364-7.5-7.5-7.5h-79.488c-4.136 0-7.5 3.364-7.5 7.5v23.529h-7.913c-9.195 0-19.518 6.92-23.009 15.426l-11.636 28.342-10.879-2.997c-1.049-.289-2.101-.436-3.124-.436-5.609.001-9.681 4.287-9.681 10.191v6.032c0 6.893 5.608 12.5 12.5 12.5h.802l-1.664 4.052c-3.244 7.903-5.884 21.283-5.884 29.825v56.621c0 6.893 5.607 12.5 12.5 12.5h15.027c6.893 0 12.5-5.607 12.5-12.5v-13.916h135.25v13.916c0 6.893 5.608 12.5 12.5 12.5h15.024c6.893 0 12.5-5.607 12.5-12.5v-56.621c0-8.542-2.64-21.922-5.884-29.825l-1.664-4.052h.963c6.893 0 12.5-5.607 12.5-12.5v-6.032c0-5.905-4.07-10.191-9.68-10.191zm-73.68-61.363c0-.165.135-.3.3-.3h5.778c.165 0 .3.135.3.3v20.797c0 .1-.057.175-.132.23h-6.114c-.075-.055-.132-.13-.132-.23v-20.797zm-41.44-0.3h6.943c.165 0 .35.125.411.279l8.241 20.716 7.554-9.345c.104-.128.114-.346.023-.483l-7.25-10.917c-.092-.138-.031-.25.134-.25h6.421c.165 0 .371.115.457.255l3.737 6.062c.086.141.228.141.314 0l3.74-6.062c.086-.141.292-.255.457-.255h6.424c.165 0 .225.112.134.25l-7.256 10.917c-.092.138-.081.355.022.483l7.692 9.514c.052.063.064.122.045.164h-6.818c-.09-.047-.171-.11-.218-.185l-4.221-6.755c-.088-.14-.23-.14-.318 0l-4.212 6.755c-.047.075-.128.138-.218.185h-12.847c-.088-.052-.164-.124-.193-.215l-1.416-4.336c-.051-.157-.228-.285-.393-.285h-7.87c-.165 0-.345.127-.399.283l-1.526 4.34c-.032.09-.108.162-.197.213h-6.179c-.049-.051-.07-.121-.035-.208l8.404-20.84c.10-.155.29-.280.45-.280zm-20.318 21.097v-16.52c0-.165-.135-.3-.3-.3h-6.945c-.165 0-.3-.135-.3-.3v-3.678c0-.165.135-.3.3-.3h20.91c.165 0 .3.135.3.3v3.678c0 .165-.135.3-.3.3h-6.985c-.165 0-.3.135-.3.3v16.52c0 .1-.057.175-.132.23h-6.116c-.075-.054-.132-.130-.132-.230zm-49.336 62.319l17.705-43.129c2.089-5.088 8.298-9.251 13.798-9.251h98.772c5.5 0 11.709 4.163 13.798 9.251l17.705 43.129c2.089 5.088-.702 9.251-6.202 9.251h-149.38c-5.502 0-8.293-4.16-6.204-9.25zm39.996 55.54c0 2.75-2.25 5-5 5h-33.794c-2.75 0-5-2.25-5-5v-16.032c0-2.75 2.25-5 5-5h33.794c2.75 0 5 2.25 5 5v16.03zm125.26 0c0 2.75-2.25 5-5 5h-33.794c-2.75 0-5-2.25-5-5v-16.032c0-2.75 2.25-5 5-5h33.794c2.75 0 5 2.25 5 5v16.03z"/><path id="path7" d="m108.16 33.858c.165 0 .246-.124.181-.275l-2.492-5.751c-.066-.151-.176-.153-.244-.003l-2.639 5.757c-.068.15.01.272.175.272h5.02z"/></g></svg>
