<?xml version="1.0" encoding="UTF-8" standalone="no"?>
<svg id="Capa_1" xmlns:rdf="http://www.w3.org/1999/02/22-rdf-syntax-ns#" style="enable-background:new 0 0 29.869 29.869" xmlns="http://www.w3.org/2000/svg" xml:space="preserve" viewBox="0 0 29.869 29.869" height="512px" width="512px" version="1.1" y="0px" x="0px" xmlns:cc="http://creativecommons.org/ns#" xmlns:dc="http://purl.org/dc/elements/1.1/"><g id="g3"><path id="path5" d="m24.032 11.541c.286 0 .518.232.518.518s-.232.518-.518.518-.518-.232-.518-.518.232-.518.518-.518zm-2.346.001c-.583 0-1.055.472-1.055 1.055s.472 1.055 1.055 1.055 1.055-.472 1.055-1.055c0-.583-.472-1.055-1.055-1.055zm1.056-1.408c0 .388.315.703.703.703s.703-.315.703-.703-.315-.703-.703-.703-.703.315-.703.703zm6.93 2.361c-.26.259-.684.259-.946 0l-.326-.328-8.666 8.668-4.45-7.487 7.148-7.15-.328-.326c-.261-.261-.259-.684 0-.945.261-.26.685-.263.946-.001l6.622 6.623c.262.260.262.684 0 .946zm-2.268-1.321l-3.977-3.979-5.53 5.559-1.112 1.112h7.944l2.675-2.692zm-16.919 7.07c0 .61.494 1.104 1.104 1.104s1.104-.494 1.104-1.104c0-.61-.494-1.104-1.104-1.104s-1.104.494-1.104 1.104zm-2.056-1.675c-.595-.001-1.076.483-1.076 1.075 0 .594.482 1.079 1.076 1.079s1.077-.485 1.077-1.079c0-.592-.484-1.077-1.077-1.075zm3.033-.821c0-.436-.353-.789-.789-.789s-.789.353-.789.789.353.789.789.789.789-.353.789-.789zm8.391 7.238c.671 1.987-.067 3.83-2.206 3.83h-15.201c-2.139 0-2.876-1.826-2.208-3.814 0 0 2.636-4.912 6.932-11.962v-4.083h-.266c-.384.001-.697-.312-.697-.694.001-.382.314-.695.696-.696h1.106l-.656-2.514h5.34l-.659 2.515h1.157c.383-.001.695.313.695.695-.002.382-.312.694-.696.694h-.265v4.083c4.294 7.051 6.928 11.947 6.928 11.946zm-3.215-2.668c-.296-.575-3.857-6.755-4.947-8.541l-.169-.278h-2.952l-.168.278c-1.11 1.823-4.484 7.719-4.86 8.354-.028.055-.06.119-.093.186v.001h13.189z" fill="#000000"/></g></svg>
