<?xml version="1.0" encoding="UTF-8" standalone="no"?>
<svg id="Слой_1" xmlns:rdf="http://www.w3.org/1999/02/22-rdf-syntax-ns#" xmlns="http://www.w3.org/2000/svg" xml:space="preserve" viewBox="0 0 591.00001 223.80033" height="223.8" width="591" version="1.1" y="0px" x="0px" xmlns:cc="http://creativecommons.org/ns#" xmlns:dc="http://purl.org/dc/elements/1.1/"><path id="path3" d="m238.7 56.5h247.4c10.8 0 19.6-8.8 19.6-19.6v-0.4c0-10.8-8.8-19.6-19.6-19.6h-247.4c-10.8 0-19.6 8.8-19.6 19.6v0.4c-0.1 10.8 8.7 19.6 19.6 19.6z"/><path id="path5" d="m219 112.1c0 10.8 8.8 19.6 19.6 19.6h332.8c10.8 0 19.6-8.8 19.6-19.6v-0.4c0-10.8-8.8-19.6-19.6-19.6h-332.8c-10.8 0-19.6 8.8-19.6 19.6v0.4z"/><path id="path7" d="m219 187.1c0 10.8 8.8 19.6 19.6 19.6h332.8c10.8 0 19.6-8.8 19.6-19.6v-0.4c0-10.8-8.8-19.6-19.6-19.6h-332.8c-10.8 0-19.6 8.8-19.6 19.6v0.4z"/><path id="path9" d="m0 123.5v100.3h158.9v-100.3c0-8.3-7.3-15.1-16.2-15.1h-18.1c-3.2 0-6.2 1.4-8 3.8l-26.6 35-6.5-12.6 10.3-20.3c1.4-2.8-0.7-6-4.1-6h-20.7c-3.3 0-5.4 3.2-4.1 6l10.3 20.2-6.4 12.5-25.8-34.7c-1.8-2.5-4.9-3.9-8.1-3.9h-19c-8.6 0-15.9 6.7-15.9 15.1z"/><path id="path11" d="m79.5 97.2c26.8 0 48.6-21.8 48.6-48.6s-21.8-48.6-48.6-48.6c-26.8-0.099657-48.7 21.7-48.7 48.5s21.9 48.7 48.7 48.7z"/></svg>
